<svg width="14" height="14" viewBox="0 0 14 14" fill="none" xmlns="http://www.w3.org/2000/svg">
<path fillRule="evenodd" clipRule="evenodd" d="M4.1567 0.0859088C3.06347 0.137324 2.11591 0.41594 1.35079 1.2101C0.582987 2.00843 0.319035 2.99991 0.269586 4.12757C0.238847 4.83141 0.0590924 10.1487 0.580314 11.5432C0.931805 12.484 1.62409 13.2072 2.5349 13.5748C2.95989 13.7471 3.44503 13.8638 4.1567 13.8979C10.1073 14.1786 12.3132 14.0257 13.2433 11.5432C13.4084 11.1013 13.522 10.5962 13.5534 9.85621C13.8254 3.63774 13.5093 2.28982 12.4722 1.2101C11.6496 0.354797 10.682 -0.227447 4.1567 0.0859088ZM4.21264 12.6468C3.56111 12.6162 3.20762 12.503 2.97173 12.4078C2.37834 12.1674 1.93263 11.7046 1.70342 11.0897C1.30649 10.0302 1.43814 4.9977 1.47355 4.1834C1.5083 3.38576 1.66333 2.65692 2.20326 2.09413C2.8715 1.39933 3.73485 1.05887 9.6133 1.3354C10.3804 1.37153 11.0814 1.53273 11.6227 2.09413C12.2909 2.78893 12.6224 3.69565 12.3524 9.79948C12.323 10.4769 12.2141 10.8445 12.1225 11.0897C11.5178 12.7051 10.1265 12.9296 4.21264 12.6468ZM9.67638 3.28298C9.67638 3.74294 10.0352 4.11674 10.4783 4.11674C10.9213 4.11674 11.2808 3.74294 11.2808 3.28298C11.2808 2.82302 10.9213 2.44922 10.4783 2.44922C10.0352 2.44922 9.67638 2.82302 9.67638 3.28298ZM3.48174 6.99192C3.48174 8.96238 5.01801 10.5597 6.91312 10.5597C8.80823 10.5597 10.3445 8.96238 10.3445 6.99192C10.3445 5.02146 8.80823 3.4248 6.91312 3.4248C5.01801 3.4248 3.48174 5.02146 3.48174 6.99192ZM4.68341 6.99156C4.68341 5.71312 5.68041 4.67578 6.91063 4.67578C8.14085 4.67578 9.13785 5.71312 9.13785 6.99156C9.13785 8.27069 8.14085 9.30803 6.91063 9.30803C5.68041 9.30803 4.68341 8.27069 4.68341 6.99156Z" fill="#212121"/>
</svg>
