<svg width="14" height="14" viewBox="0 0 14 14" fill="none" xmlns="http://www.w3.org/2000/svg">
<path fillRule="evenodd" clipRule="evenodd" d="M13.4391 13.9998H10.7592V9.10054C10.7592 7.75654 10.1918 7.00684 9.17409 7.00684C8.06664 7.00684 7.40941 7.78804 7.40941 9.10054V13.9998H4.72956V4.89984H7.40941V5.92324C7.40941 5.92324 8.25021 4.38184 10.1449 4.38184C12.0402 4.38184 13.4391 5.59004 13.4391 8.09044C13.4391 10.5901 13.4391 13.9998 13.4391 13.9998ZM1.67462 3.4447C0.770843 3.4447 0.0385742 2.6733 0.0385742 1.722C0.0385742 0.7714 0.770843 0 1.67462 0C2.57773 0 3.31 0.7714 3.31 1.722C3.31067 2.6733 2.57773 3.4447 1.67462 3.4447ZM0.0385742 14.0004H3.38839V4.90039H0.0385742V14.0004Z" fill="#212121"/>
</svg>
