<svg width="17" height="14" viewBox="0 0 17 14" fill="none" xmlns="http://www.w3.org/2000/svg">
<path fillRule="evenodd" clipRule="evenodd" d="M5.42742 14C11.5405 14 14.8842 8.6132 14.8842 3.94228C14.8842 3.78894 14.8842 3.63646 14.8744 3.48484C15.5249 2.98518 16.0862 2.36492 16.5325 1.65506C15.9266 1.94107 15.2827 2.12887 14.6242 2.21158C15.3175 1.76964 15.8367 1.07529 16.0854 0.256027C15.4325 0.667812 14.7189 0.958129 13.9745 1.11406C12.7158 -0.309101 10.6106 -0.378019 9.27168 0.960714C8.40903 1.82391 8.0421 3.11096 8.31021 4.33856C5.63802 4.19555 3.14808 2.85337 1.46004 0.645414C0.57795 2.26068 1.02912 4.3265 2.48955 5.36371C1.96062 5.34734 1.44303 5.19572 0.98052 4.92178V4.96657C0.98133 6.64903 2.0967 8.09803 3.64704 8.43143C3.1578 8.57357 2.64426 8.59424 2.14692 8.49173C2.58189 9.93212 3.8301 10.9185 5.25165 10.9469C4.07472 11.9307 2.62077 12.4649 1.12389 12.4631C0.85983 12.4623 0.59577 12.4459 0.33252 12.4123C1.85289 13.4495 3.62112 14 5.42742 13.9974" fill="#212121"/>
</svg>
