<svg width="21" height="14" viewBox="0 0 21 14" fill="none" xmlns="http://www.w3.org/2000/svg">
<path fillRule="evenodd" clipRule="evenodd" d="M8.5766 9.58625V3.97461C10.5002 4.91204 11.9901 5.81756 13.7521 6.79389C12.2988 7.62861 10.5002 8.56504 8.5766 9.58625ZM19.2958 1.18289C18.9639 0.730127 18.3984 0.37809 17.7963 0.26141C16.0266 -0.0866377 4.98599 -0.087635 3.21722 0.26141C2.7344 0.355153 2.30447 0.581533 1.93513 0.933569C0.378928 2.42947 0.866564 10.4515 1.24167 11.751C1.39941 12.3134 1.60331 12.7193 1.86011 12.9856C2.19097 13.3376 2.64399 13.58 3.16432 13.6887C4.62146 14.0008 12.1284 14.1753 17.7655 13.7355C18.2849 13.6418 18.7447 13.3915 19.1073 13.0245C20.5461 11.5345 20.448 3.06174 19.2958 1.18289Z" fill="#212121"/>
</svg>
