<svg width="62" height="49" viewBox="0 0 62 49" fill="none" xmlns="http://www.w3.org/2000/svg">
<path d="M60.1199 30.0592C60.0334 29.9739 59.9035 29.917 59.7737 29.917H38.4818C38.352 29.917 38.2222 29.9739 38.1356 30.0592C38.0491 30.1446 37.9913 30.2726 37.9913 30.4006V33.971H30.3026V33.5869C30.3026 32.9326 29.7544 32.3921 29.0909 32.4063L4.62541 31.2826C3.09632 31.2826 1.84131 32.5059 1.84131 34.0279V39.1487C1.84131 40.6565 3.08189 41.8941 4.62541 41.8941H4.63984L29.3938 40.5854C29.8987 40.6139 30.317 40.2298 30.317 39.7319V39.2056H38.2799L40.5591 43.7006C40.6456 43.8571 40.8043 43.9709 40.9918 43.9709H46.8053V47.1572C46.8053 47.2852 46.863 47.399 46.9495 47.4986C47.0361 47.5839 47.1659 47.6408 47.2957 47.6408H50.9598C51.0896 47.6408 51.2194 47.5839 51.306 47.4986C51.3925 47.4132 51.4502 47.2852 51.4502 47.1572V43.9709H57.2637C57.4512 43.9709 57.6243 43.8713 57.6964 43.7006L60.192 38.7789L60.2497 38.5655V30.4006C60.2497 30.2726 60.192 30.1446 60.1055 30.0592H60.1199Z" stroke="#212121" stroke-width="1.87381" stroke-miterlimit="10"/>
<path d="M37.9915 33.9561H30.3027V39.1622H37.9915V33.9561Z" stroke="#212121" stroke-width="1.87381" stroke-miterlimit="10"/>
<path d="M40.0831 25.0804H58.1726C58.3024 25.0804 58.4322 25.0235 58.5188 24.9382C58.6053 24.8528 58.663 24.7248 58.663 24.5968V20.0876C58.663 20.0876 58.663 20.0734 58.663 20.0591C58.663 20.0165 58.663 19.9738 58.6342 19.9311C58.6342 19.9169 58.6342 19.9027 58.6342 19.8884C58.6053 19.8315 58.5765 19.7889 58.5332 19.7462C58.5043 19.7178 58.4611 19.6893 58.4178 19.6609L54.4364 17.7405L52.5034 14.7818C52.5034 14.7818 52.4312 14.6965 52.388 14.668C52.388 14.6254 52.388 14.5685 52.388 14.5258C52.388 12.3779 52.7486 10.3864 53.1092 8.94975C53.2968 8.2243 53.4699 7.64109 53.6141 7.2428C53.6863 7.04366 53.744 6.88719 53.7728 6.78761C53.8161 6.68804 53.8305 6.63114 53.8305 6.63114L53.8594 6.51735C53.8882 6.26131 53.9171 6.00526 53.9171 5.74922C53.9171 4.89575 53.8594 4.18452 53.7151 3.57286C53.4987 2.66249 53.0083 1.95126 52.2293 1.5672C51.4503 1.18313 50.4694 1.06934 49.1711 1.06934C48.3056 1.06934 47.5843 1.12623 46.964 1.26848C46.0408 1.48185 45.3195 1.96548 44.93 2.73361C44.5406 3.50174 44.4252 4.46901 44.4252 5.74922C44.4252 6.01949 44.4396 6.27553 44.4829 6.51735L44.5117 6.63114C44.5117 6.63114 44.5261 6.67382 44.5694 6.78761C44.8435 7.51307 45.9542 10.7705 45.9542 14.54C45.9542 14.5827 45.9542 14.6254 45.9542 14.6823C45.911 14.7249 45.8677 14.7534 45.8388 14.796L44.1222 17.6979L39.9244 19.6751C39.9244 19.6751 39.8379 19.732 39.809 19.7604C39.809 19.7604 39.7369 19.86 39.7081 19.9027C39.7081 19.9027 39.7081 19.9311 39.7081 19.9453C39.6936 19.988 39.6792 20.0307 39.6792 20.0734C39.6792 20.0734 39.6792 20.0876 39.6792 20.1018V24.611C39.6792 24.739 39.7369 24.867 39.8235 24.9524C39.91 25.0377 40.0398 25.0946 40.1697 25.0946L40.0831 25.0804Z" stroke="#212121" stroke-width="1.87381" stroke-linecap="round" stroke-linejoin="round"/>
<path d="M45.7954 14.8809H52.258" stroke="#212121" stroke-width="0.999368" stroke-linecap="round" stroke-linejoin="round"/>
<path d="M55.2874 17.9541H43.0547" stroke="#212121" stroke-width="0.999368" stroke-linecap="round" stroke-linejoin="round"/>
<path d="M40.8765 20.6133H57.3503" stroke="#212121" stroke-width="0.999368" stroke-linecap="round" stroke-linejoin="round"/>
<path d="M46.0698 43.9707H51.9121" stroke="#212121" stroke-width="0.999368" stroke-linecap="round" stroke-linejoin="round"/>
</svg>
