<svg width="19" height="14" viewBox="0 0 19 14" fill="none" xmlns="http://www.w3.org/2000/svg">
<path d="M18.5306 6.76689L16.602 2.3024C16.5528 2.18712 16.4705 2.08876 16.3653 2.01958C16.2602 1.9504 16.1368 1.91345 16.0106 1.91335H14.082V0.637784C14.082 0.468633 14.0143 0.30641 13.8937 0.186803C13.7732 0.067195 13.6097 0 13.4392 0H1.22489C1.05439 0 0.890879 0.067195 0.77032 0.186803C0.649761 0.30641 0.582031 0.468633 0.582031 0.637784V11.4801C0.582031 11.6493 0.649761 11.8115 0.77032 11.9311C0.890879 12.0507 1.05439 12.1179 1.22489 12.1179H2.6006C2.74864 12.6583 3.07182 13.1354 3.52027 13.4756C3.96873 13.8157 4.51754 14 5.08203 14C5.64653 14 6.19534 13.8157 6.64379 13.4756C7.09224 13.1354 7.41542 12.6583 7.56346 12.1179H11.6006C11.7486 12.6583 12.0718 13.1354 12.5203 13.4756C12.9687 13.8157 13.5175 14 14.082 14C14.6465 14 15.1953 13.8157 15.6438 13.4756C16.0922 13.1354 16.4154 12.6583 16.5635 12.1179H17.9392C18.1097 12.1179 18.2732 12.0507 18.3937 11.9311C18.5143 11.8115 18.582 11.6493 18.582 11.4801V7.01563C18.5819 6.93013 18.5644 6.84554 18.5306 6.76689ZM14.082 3.18892H15.5863L16.962 6.37784H14.082V3.18892ZM5.08203 12.7557C4.82774 12.7557 4.57916 12.6809 4.36773 12.5407C4.15629 12.4005 3.9915 12.2013 3.89419 11.9683C3.79687 11.7352 3.77141 11.4787 3.82102 11.2313C3.87063 10.9838 3.99308 10.7565 4.17289 10.5782C4.3527 10.3998 4.5818 10.2783 4.8312 10.2291C5.0806 10.1798 5.33912 10.2051 5.57405 10.3016C5.80899 10.3982 6.00979 10.5617 6.15106 10.7714C6.29234 10.9812 6.36774 11.2278 6.36774 11.4801C6.36774 11.8184 6.23229 12.1429 5.99117 12.3821C5.75005 12.6213 5.42302 12.7557 5.08203 12.7557ZM11.6006 10.8423H7.56346C7.41542 10.3019 7.09224 9.8248 6.64379 9.48466C6.19534 9.14452 5.64653 8.96023 5.08203 8.96023C4.51754 8.96023 3.96873 9.14452 3.52027 9.48466C3.07182 9.8248 2.74864 10.3019 2.6006 10.8423H1.86775V1.27557H12.7963V9.28614C12.5036 9.45469 12.2473 9.67893 12.0421 9.94597C11.8369 10.213 11.6869 10.5176 11.6006 10.8423ZM14.082 12.7557C13.8277 12.7557 13.5792 12.6809 13.3677 12.5407C13.1563 12.4005 12.9915 12.2013 12.8942 11.9683C12.7969 11.7352 12.7714 11.4787 12.821 11.2313C12.8706 10.9838 12.9931 10.7565 13.1729 10.5782C13.3527 10.3998 13.5818 10.2783 13.8312 10.2291C14.0806 10.1798 14.3391 10.2051 14.5741 10.3016C14.809 10.3982 15.0098 10.5617 15.1511 10.7714C15.2923 10.9812 15.3677 11.2278 15.3677 11.4801C15.3677 11.8184 15.2323 12.1429 14.9912 12.3821C14.75 12.6213 14.423 12.7557 14.082 12.7557ZM17.2963 10.8423H16.5635C16.4213 10.2961 16.1006 9.81199 15.6517 9.46579C15.2027 9.11959 14.6507 8.93081 14.082 8.92898V7.65341H17.2963V10.8423Z" fill="black"/>
</svg>
