<svg width="57" height="56" viewBox="0 0 57 56" fill="none" xmlns="http://www.w3.org/2000/svg">
<g clip-path="url(#clip0_1045_6236)">
<path d="M38.6239 22.9092C38.6239 22.7629 38.5873 22.6288 38.5142 22.507H38.5629C36.9422 19.6428 31.7509 15.2916 25.4629 15.0479H23.111C16.8229 15.2916 11.6317 19.6428 10.0109 22.507H10.0597C9.98655 22.6288 9.94999 22.7629 9.94999 22.9092M1.31006 23.4942H47.2516M10.084 36.4501H38.4898C38.9894 36.4501 39.4403 36.6573 39.7815 36.9864C40.1227 37.3277 40.3177 37.803 40.3177 38.2783V46.7003C40.3177 47.2 40.1106 47.6631 39.7815 47.9922C39.4525 48.3213 38.9894 48.5285 38.4898 48.5285H10.0719C9.57223 48.5285 9.12134 48.3213 8.78013 47.9922C8.78013 47.9922 8.70701 47.9191 8.68264 47.8825C8.41455 47.5656 8.24394 47.1512 8.24394 46.7003V38.2783C8.24394 37.7786 8.45111 37.3155 8.78013 36.9864C9.10915 36.6573 9.57223 36.4501 10.0719 36.4501H10.084ZM24.293 40.0578C25.6335 40.0578 26.718 41.1425 26.718 42.4832C26.718 43.8239 25.6335 44.9086 24.293 44.9086C22.9525 44.9086 21.868 43.8239 21.868 42.4832C21.868 41.1425 22.9525 40.0578 24.293 40.0578ZM4.45407 27.3578H44.1076C44.6316 27.3578 45.0459 27.7966 45.0459 28.2963V53.7084C45.0459 54.2203 44.6072 54.6469 44.1076 54.6469H4.45407C3.94225 54.6469 3.51574 54.2203 3.51574 53.7084V28.3085C3.51574 27.7844 3.94225 27.37 4.45407 27.37V27.3578Z" stroke="#212121" stroke-width="1.87381" stroke-linecap="round" stroke-linejoin="round"/>
<path d="M52.6988 6.43066V8.332C52.6988 8.52701 52.6622 8.70983 52.5891 8.88047C52.5404 8.92922 52.4185 9.20955 52.2723 9.3558C52.1382 9.48987 51.9676 9.61175 51.7848 9.68488C51.6142 9.75801 51.4193 9.79457 51.2243 9.79457H38.6117H26.0113C26.0113 9.79457 25.3289 9.91645 25.2679 9.94083C25.0242 10.0383 24.8049 10.1846 24.6221 10.3674C24.4393 10.5502 24.293 10.7696 24.1955 11.0012C24.0981 11.2328 24.0493 11.4765 24.0493 11.7447V14.5479" stroke="#212121" stroke-width="1.87381" stroke-linecap="round" stroke-linejoin="round"/>
<path d="M52.7839 1.38477C54.1244 1.38477 55.2089 2.4695 55.2089 3.81019C55.2089 5.15088 54.1244 6.23562 52.7839 6.23562C51.4434 6.23562 50.3589 5.15088 50.3589 3.81019C50.3589 2.4695 51.4434 1.38477 52.7839 1.38477V1.38477Z" stroke="#212121" stroke-width="1.87381" stroke-linecap="round" stroke-linejoin="round"/>
</g>
<defs>
<clipPath id="clip0_1045_6236">
<rect width="56.2144" height="55.5898" fill="white" transform="translate(0.152344 0.226562)"/>
</clipPath>
</defs>
</svg>
