<svg width="70" height="29" viewBox="0 0 70 29" fill="none" xmlns="http://www.w3.org/2000/svg">
<path d="M48.3204 4.51786H38.189C37.8108 4.49642 37.441 4.63006 37.1731 4.88503C36.9051 5.14 36.7648 5.4919 36.7873 5.85184V22.3447C36.7873 23.289 37.3938 23.9002 38.3334 23.9002C39.2424 23.9002 39.8524 23.2744 39.8524 22.3447V15.6118H46.8966C47.7903 15.6118 48.4156 15.041 48.4156 14.2228C48.4156 13.4337 47.7767 12.8613 46.8966 12.8613H39.8524V7.26991H48.3204C49.2141 7.26991 49.8376 6.69912 49.8376 5.88095C49.8325 5.09026 49.1988 4.51786 48.3204 4.51786Z" fill="#08BFB0"/>
<path d="M64.3447 21.1278H55.8682V15.4961H62.9258C63.8175 15.4961 64.4397 14.9196 64.4397 14.0956C64.4397 13.3008 63.8022 12.7243 62.9258 12.7243H55.8666V7.28809H64.343C65.2347 7.28809 65.8569 6.7132 65.8569 5.88914C65.8569 5.09439 65.2212 4.51788 64.343 4.51788H54.2051C53.8278 4.49628 53.4588 4.63089 53.1915 4.88769C52.9242 5.14449 52.784 5.49893 52.8065 5.86145V22.5544C52.784 22.917 52.9242 23.2714 53.1915 23.5282C53.4588 23.785 53.8278 23.9196 54.2051 23.898H64.343C65.2347 23.898 65.8569 23.3231 65.8569 22.499C65.8586 21.7043 65.2229 21.1278 64.3447 21.1278Z" fill="#08BFB0"/>
<path d="M10.6284 7.19981C12.0616 7.19981 13.0507 7.75086 13.939 9.04243C14.2952 9.57611 14.6971 9.81611 15.2404 9.81611C15.6078 9.82862 15.964 9.69235 16.2238 9.43992C16.4836 9.18749 16.6235 8.84162 16.6102 8.48507C16.6051 8.17907 16.5176 7.87968 16.3564 7.61665C15.2518 5.67614 13.1109 4.51562 10.6284 4.51562C7.34877 4.51562 5.09076 6.07088 4.10004 9.01243C3.63477 10.394 3.55994 11.6761 3.55994 14.2087C3.55994 16.7413 3.63477 18.0219 4.10004 19.4034C5.09076 22.3449 7.35366 23.9002 10.6284 23.9002C13.1109 23.9002 15.2518 22.7397 16.358 20.796C16.5194 20.5331 16.6069 20.2337 16.6118 19.9276C16.6247 19.5712 16.4845 19.2256 16.2248 18.9733C15.9652 18.721 15.6093 18.5846 15.242 18.5966C14.6971 18.5966 14.2952 18.8366 13.9406 19.3734C13.054 20.6634 12.0649 21.2144 10.6317 21.2144C8.31997 21.2144 7.35853 19.7587 6.95997 18.5302C6.68504 17.7282 6.52561 16.7634 6.52561 14.2008C6.52561 11.6382 6.68178 10.6735 6.95509 9.88401C7.35528 8.65717 8.31672 7.19981 10.6284 7.19981Z" fill="#08BFB0"/>
<g opacity="0.15">
<path fill-rule="evenodd" clip-rule="evenodd" d="M27.5794 5.03516H26.4104V6.13673C26.4104 7.16233 26.3029 7.69412 26.2088 8.21325C26.1148 8.6944 26.0207 9.20087 26.0207 9.97323C26.0207 10.8216 26.2223 11.6319 26.4104 12.4043C26.5985 13.1386 26.7598 13.8477 26.7598 14.5441C26.7598 15.2405 26.5851 15.9369 26.4104 16.684C26.2223 17.4689 26.0207 18.2667 26.0207 19.115C26.0207 19.8873 26.1148 20.3938 26.2088 20.875C26.2627 21.1536 26.3164 21.4321 26.3567 21.7866C25.4699 21.7866 24.7711 21.5461 24.2605 21.2675C22.8766 20.5205 22.0032 19.115 22.0032 17.5956V11.4926C22.0032 9.84661 23.0243 8.33986 24.6099 7.64347L24.6771 7.61815L24.6905 7.55484C24.7577 7.12434 24.7845 6.69384 24.7845 6.14939V5.25041L24.6099 5.30106C21.6941 6.09874 19.6517 8.64375 19.6517 11.5053V17.6083C19.6517 19.115 20.2296 20.5838 21.2507 21.736C22.3391 22.9642 23.9515 23.8125 25.6446 24.0151C26.6792 24.1291 27.7944 24.1417 28.8291 23.9644C28.9903 23.9391 28.7215 21.6474 28.7215 21.6474C28.7215 21.6474 28.6006 20.8117 28.5469 20.4825C28.4663 20.0393 28.3991 19.6975 28.3991 19.115C28.3991 18.5199 28.5603 17.8741 28.7215 17.1778C28.9231 16.3548 29.1381 15.4937 29.1381 14.5441C29.1381 13.5945 28.9231 12.7335 28.7215 11.9105C28.5469 11.2267 28.3991 10.5683 28.3991 9.97323C28.3991 9.40345 28.4663 9.04893 28.5469 8.60577C28.614 8.2639 28.6812 7.89671 28.735 7.37758C30.6968 7.85872 32.121 9.55539 32.121 11.48V17.5829C32.121 18.9377 31.4089 20.1913 30.3071 20.9763C30.3877 21.3181 30.5355 22.1285 30.6161 23.382C32.9004 22.3311 34.4725 20.128 34.4725 17.5829V11.4926C34.4321 7.92203 31.3686 5.03516 27.5794 5.03516Z" fill="black"/>
<path fill-rule="evenodd" clip-rule="evenodd" d="M29.5411 14.9633C29.5411 14.0137 29.3261 13.1527 29.1246 12.3296C28.9499 11.6459 28.8021 10.9875 28.8021 10.3924C28.8021 9.82262 28.8693 9.46809 28.9499 9.02494C29.0171 8.68307 29.0843 8.31587 29.138 7.79675C29.8233 7.96135 30.4414 8.27789 30.9654 8.70839C30.3742 8.0753 29.5948 7.59416 28.708 7.37891C28.6543 7.89804 28.5871 8.26523 28.5199 8.60709C28.4393 9.05025 28.3721 9.39212 28.3721 9.97456C28.3721 10.5697 28.5333 11.2154 28.6946 11.9118C28.8961 12.7475 29.1112 13.5958 29.1112 14.5455C29.1112 15.4951 28.8961 16.3561 28.6946 17.1791C28.5199 17.8755 28.3721 18.5213 28.3721 19.1163C28.3721 19.6861 28.4393 20.0406 28.5199 20.4838C28.5871 20.8003 28.6946 21.6487 28.6946 21.6487C28.6946 21.6487 28.9633 23.9404 28.8021 23.9658C27.7675 24.143 26.6522 24.1304 25.6176 24.0164C24.2336 23.8518 22.9034 23.2567 21.8553 22.3578C22.9168 23.4593 24.3814 24.2063 25.9401 24.3963C27.015 24.5229 28.1571 24.5482 29.2321 24.3836C29.3933 24.3583 29.1246 22.0665 29.1246 22.0665C29.1246 22.0665 29.0037 21.2308 28.9499 20.9017C28.8693 20.4585 28.8021 20.1166 28.8021 19.5342C28.8021 18.9391 28.9633 18.2933 29.1246 17.5969C29.3396 16.7612 29.5411 15.9129 29.5411 14.9633Z" fill="black"/>
<path fill-rule="evenodd" clip-rule="evenodd" d="M32.6452 7.13672C33.7604 8.28893 34.4323 9.80834 34.4323 11.4923V17.5953C34.4323 20.1403 32.8602 22.3434 30.5759 23.3944L31.0193 23.8122C33.3036 22.7613 34.8757 20.5582 34.8757 18.0131V11.9102C34.8757 10.0236 34.0157 8.31426 32.6452 7.13672Z" fill="black"/>
<path fill-rule="evenodd" clip-rule="evenodd" d="M24.7712 6.13632C24.7712 6.68078 24.7443 7.11127 24.6771 7.54177L24.6637 7.60508L24.5965 7.6304C23.011 8.3268 21.9897 9.83354 21.9897 11.4796V17.5825C21.9897 18.8234 22.581 19.9882 23.5484 20.7859C22.8497 20.0262 22.4332 19.0386 22.4332 18.0003V11.9101C22.4332 10.264 23.4544 8.7573 25.0399 8.0609L25.1071 8.03558L25.1205 7.97227C25.1877 7.54177 25.2146 7.11127 25.2146 6.56682V5.66784L24.7712 5.25V5.79445V6.13632Z" fill="black"/>
<path fill-rule="evenodd" clip-rule="evenodd" d="M32.7469 7.19425C31.4818 5.90838 29.659 5.10156 27.6185 5.10156H26.435V6.19833C26.435 7.21946 26.3262 7.74894 26.231 8.26581C26.1358 8.74485 26.0406 9.24911 26.0406 10.0181C26.0406 10.8628 26.2446 11.6696 26.435 12.4386C26.6255 13.1698 26.7888 13.8757 26.7888 14.5691C26.7888 15.2625 26.6119 15.9558 26.435 16.6996C26.2446 17.4812 26.0406 18.2754 26.0406 19.12C26.0406 19.8891 26.1358 20.3933 26.231 20.8724C26.2854 21.1497 26.3398 21.427 26.3806 21.78C25.4829 21.78 24.7755 21.5405 24.2585 21.2632C24.0001 21.1245 23.7688 20.9606 23.5376 20.7841C22.8303 20.0277 22.4086 19.0444 22.4086 18.0107V11.9469C22.4086 10.3081 23.4424 8.80789 25.0475 8.11453L25.1156 8.08932L25.1291 8.02628C25.1972 7.59766 25.2244 7.16904 25.2244 6.62695V5.71928L24.7755 5.30327L24.6667 5.34108L24.5986 5.3537C21.6467 6.14791 19.5791 8.68182 19.5791 11.5309V17.6072C19.5791 19.1075 20.164 20.5698 21.1978 21.717C21.3883 21.9313 21.6059 22.1456 21.8372 22.3347C22.9254 23.4441 24.4762 24.2131 26.0814 24.4022C27.1288 24.5157 28.2579 24.5282 29.3053 24.3517C29.4686 24.3265 29.1965 22.0448 29.1965 22.0448C29.1965 22.0448 29.0741 21.2127 29.0197 20.8849C28.9381 20.4437 28.87 20.1034 28.87 19.5235C28.87 18.931 29.0332 18.288 29.1965 17.5947C29.4005 16.7878 29.6046 15.9306 29.6046 14.9851C29.6046 14.0396 29.387 13.1823 29.1829 12.363C29.006 11.6822 28.8564 11.0266 28.8564 10.4341C28.8564 9.86684 28.9244 9.51386 29.006 9.07262C29.0741 8.73225 29.1421 8.36666 29.1965 7.84979C29.8903 8.01368 30.516 8.32884 31.0329 8.75746C31.7402 9.51386 32.162 10.4846 32.162 11.5309V17.6072C32.162 18.9562 31.441 20.2042 30.3255 20.9858C30.4072 21.3262 30.5568 22.133 30.6384 23.3811L31.0874 23.7971L31.1553 23.7719C33.4271 22.7129 35.005 20.5446 35.005 18.0232V11.9469C35.005 10.0685 34.1344 8.37927 32.7469 7.19425Z" fill="black"/>
</g>
<path fill-rule="evenodd" clip-rule="evenodd" d="M26.9415 4.51562H25.7684V5.60248C25.7684 6.61439 25.6605 7.13908 25.5661 7.65128C25.4718 8.126 25.3774 8.6257 25.3774 9.38776C25.3774 10.2248 25.5796 11.0243 25.7684 11.7864C25.9572 12.5109 26.119 13.2105 26.119 13.8976C26.119 14.5847 25.9437 15.2718 25.7684 16.0088C25.5796 16.7834 25.3774 17.5705 25.3774 18.4075C25.3774 19.1695 25.4718 19.6692 25.5661 20.1439C25.62 20.4187 25.674 20.6936 25.7145 21.0434C24.8245 21.0434 24.1233 20.806 23.6109 20.5312C22.2221 19.7941 21.3456 18.4075 21.3456 16.9083V10.8869C21.3456 9.26283 22.3704 7.77621 23.9615 7.08911L24.0289 7.06412L24.0424 7.00166C24.1098 6.57691 24.1368 6.15216 24.1368 5.61498V4.71551L23.9615 4.76548C21.0354 5.55252 18.9858 8.06354 18.9858 10.8869V16.9083C18.9858 18.395 19.5656 19.8441 20.5905 20.9809C21.6827 22.1927 23.3008 23.0297 24.9998 23.2296C26.038 23.3421 27.1572 23.3545 28.1955 23.1796C28.3574 23.1546 28.0877 20.8935 28.0877 20.8935C28.0877 20.8935 27.9663 20.069 27.9124 19.7441C27.8314 19.3069 27.7641 18.9696 27.7641 18.395C27.7641 17.8078 27.9259 17.1707 28.0877 16.4836C28.2899 15.6716 28.5057 14.8221 28.5057 13.8851C28.5057 12.9482 28.2899 12.0987 28.0877 11.2866C27.9124 10.612 27.7641 9.96241 27.7641 9.37526C27.7641 8.8131 27.8314 8.4633 27.9124 8.02605C27.9798 7.68876 28.0472 7.32647 28.1012 6.81427C30.0429 7.30148 31.4587 8.98799 31.4587 10.8869V16.9083C31.4587 18.245 30.744 19.4818 29.6384 20.2564C29.7193 20.5936 29.8676 21.3932 29.9485 22.63C32.2408 21.5931 33.8185 19.4194 33.8185 16.9083V10.8869C33.8185 7.36394 30.744 4.51562 26.9415 4.51562Z" fill="#08BFB0"/>
<path fill-rule="evenodd" clip-rule="evenodd" d="M28.8672 14.4098C28.8672 13.465 28.6572 12.6082 28.4603 11.7894C28.2896 11.109 28.1453 10.4539 28.1453 9.86176C28.1453 9.29481 28.2109 8.94205 28.2896 8.5011C28.3553 8.16094 28.4209 7.79558 28.4734 7.27903C29.1429 7.44282 29.7467 7.75778 30.2586 8.18614C29.681 7.5562 28.9197 7.07746 28.0534 6.86328C28.0009 7.37982 27.9352 7.74518 27.8696 8.08535C27.7909 8.5263 27.7252 8.86647 27.7252 9.446C27.7252 10.0381 27.8827 10.6807 28.0403 11.3736C28.2371 12.2051 28.4472 13.0492 28.4472 13.9941C28.4472 14.939 28.2371 15.7957 28.0403 16.6146C27.8696 17.3075 27.7252 17.9501 27.7252 18.5422C27.7252 19.1091 27.7909 19.4619 27.8696 19.9029C27.9352 20.2178 28.0403 21.0619 28.0403 21.0619C28.0403 21.0619 28.3028 23.3423 28.1453 23.3675C27.1346 23.5439 26.0451 23.5313 25.0344 23.4179C23.6823 23.2541 22.3828 22.662 21.359 21.7675C22.396 22.8635 23.8267 23.6069 25.3494 23.7959C26.3995 23.9218 27.5152 23.947 28.5653 23.7832C28.7229 23.7581 28.4603 21.4777 28.4603 21.4777C28.4603 21.4777 28.3422 20.6462 28.2896 20.3186C28.2109 19.8777 28.1453 19.5375 28.1453 18.958C28.1453 18.3658 28.3028 17.7233 28.4603 17.0304C28.6704 16.1989 28.8672 15.3548 28.8672 14.4098Z" fill="#C7C7C7"/>
<path fill-rule="evenodd" clip-rule="evenodd" d="M32.2572 6.86328C33.3344 7.99975 33.9833 9.49839 33.9833 11.1594V17.1789C33.9833 19.6892 32.4649 21.8622 30.2585 22.8987L30.6869 23.3108C32.8932 22.2743 34.4117 20.1013 34.4117 17.5911V11.5715C34.4117 9.71069 33.581 8.02473 32.2572 6.86328Z" fill="#C7C7C7"/>
<path fill-rule="evenodd" clip-rule="evenodd" d="M24.4294 5.42044C24.4294 5.97626 24.3997 6.41575 24.3255 6.85522L24.3107 6.91985L24.2365 6.94571C22.4863 7.65664 21.359 9.19483 21.359 10.8752V17.1055C21.359 18.3723 22.0117 19.5615 23.0796 20.3758C22.3083 19.6003 21.8485 18.592 21.8485 17.5321V11.3147C21.8485 9.63431 22.9758 8.09612 24.726 7.38519L24.8002 7.35934L24.815 7.29471C24.8892 6.85522 24.9188 6.41575 24.9188 5.85993V4.94218L24.4294 4.51562V5.07144V5.42044Z" fill="#C7C7C7"/>
</svg>
