<svg width="55" height="55" viewBox="0 0 55 55" fill="none" xmlns="http://www.w3.org/2000/svg">
<path d="M41.6711 34.3796L52.5937 23.4569C54.5234 21.5272 53.8316 19.6582 52.4602 18.2747L36.1855 1.98782C35.0811 0.883415 32.8723 0.446509 31.2339 2.08491L11.5488 21.7821" stroke="#212121" stroke-width="1.87381" stroke-linecap="round" stroke-linejoin="round"/>
<path d="M22.18 27.1465L21.2698 39.307C21.2334 39.7561 21.5732 40.1566 22.0222 40.193L41.2339 42.1469C41.683 42.1955 42.8359 37.1953 43.5641 36.6006L22.1921 27.1465H22.18Z" stroke="#212121" stroke-width="1.87381" stroke-linecap="round" stroke-linejoin="round"/>
<path d="M22.3621 27.171L12.9687 33.4454C12.7017 33.6275 12.289 33.7246 12.1555 33.4454L7.6651 24.0398C7.5316 23.7485 7.44665 23.4451 7.6651 23.2267L9.75254 21.1514L22.3621 27.1831V27.171Z" stroke="#212121" stroke-width="1.87381" stroke-linecap="round" stroke-linejoin="round"/>
<path d="M34.7897 42.0489L24.2676 52.5711C23.0782 53.7605 20.7723 54.1974 19.2796 52.7046L2.04606 35.4711C0.880972 34.306 0.796018 31.7452 2.00965 30.5195L7.7137 24.8154" stroke="#212121" stroke-width="1.87381" stroke-linecap="round" stroke-linejoin="round"/>
<path d="M42.3018 20.6895L44.8868 23.2745C45.1416 23.5293 45.5664 23.5293 45.8213 23.2745L48.4063 20.6895" stroke="#212121" stroke-width="1.87381" stroke-linecap="round" stroke-linejoin="round"/>
<path d="M36.2583 14.6455L38.8433 17.2305C39.0982 17.4854 39.523 17.4854 39.7778 17.2305L42.3628 14.6455" stroke="#212121" stroke-width="1.87381" stroke-linecap="round" stroke-linejoin="round"/>
<path d="M30.2266 8.61426L32.8116 11.1993C33.0665 11.4541 33.4912 11.4541 33.7461 11.1993L36.3311 8.61426" stroke="#212121" stroke-width="1.87381" stroke-linecap="round" stroke-linejoin="round"/>
<path d="M36.6709 26.7578L39.2559 29.3428C39.5108 29.5977 39.9356 29.5977 40.1904 29.3428L42.7754 26.7578" stroke="#212121" stroke-width="1.87381" stroke-linecap="round" stroke-linejoin="round"/>
<path d="M30.627 20.7139L33.212 23.2989C33.4668 23.5538 33.8916 23.5538 34.1465 23.2989L36.7315 20.7139" stroke="#212121" stroke-width="1.87381" stroke-linecap="round" stroke-linejoin="round"/>
<path d="M24.5952 14.6826L27.1802 17.2676C27.4351 17.5225 27.8599 17.5225 28.1147 17.2676L30.6998 14.6826" stroke="#212121" stroke-width="1.87381" stroke-linecap="round" stroke-linejoin="round"/>
<path d="M18.9639 20.75L21.5489 23.335C21.8038 23.5899 22.2285 23.5899 22.4834 23.335L25.0684 20.75" stroke="#212121" stroke-width="1.87381" stroke-linecap="round" stroke-linejoin="round"/>
<path d="M24.959 26.6855L27.544 29.2706C27.7989 29.5254 28.2236 29.5254 28.4785 29.2706L31.0635 26.6855" stroke="#212121" stroke-width="1.87381" stroke-linecap="round" stroke-linejoin="round"/>
</svg>
