<svg width="146" height="146" viewBox="0 0 146 146" fill="none" xmlns="http://www.w3.org/2000/svg">
<path fill-rule="evenodd" clip-rule="evenodd" d="M133.494 73.3357C133.494 106.746 106.41 133.83 72.9999 133.83C39.59 133.83 12.5059 106.746 12.5059 73.3357C12.5059 39.9258 39.59 12.8417 72.9999 12.8417C106.41 12.8417 133.494 39.9258 133.494 73.3357ZM56.8683 65.0869V73.3406V81.5943C56.8683 92.1903 64.3438 96.5402 73.4806 91.2422L80.5685 87.1154L87.6564 82.9885C96.7932 77.6906 96.7932 68.9907 87.6564 63.6927L80.5685 59.5659L73.4806 55.439C64.3438 50.141 56.8683 54.4352 56.8683 65.0869Z" fill="white" fill-opacity="0.8"/>
<path d="M73.4806 91.2422L73.8177 91.8237L73.8188 91.8231L73.4806 91.2422ZM80.5685 87.1154L80.9067 87.6963L80.5685 87.1154ZM87.6564 82.9885L87.3192 82.4071L87.3182 82.4077L87.6564 82.9885ZM87.6564 63.6927L87.3182 64.2736L87.3192 64.2742L87.6564 63.6927ZM80.5685 59.5659L80.9067 58.985L80.5685 59.5659ZM73.4806 55.439L73.8188 54.8581L73.8177 54.8575L73.4806 55.439ZM72.9999 134.502C106.781 134.502 134.166 107.117 134.166 73.3357H132.822C132.822 106.374 106.039 133.158 72.9999 133.158V134.502ZM11.8337 73.3357C11.8337 107.117 39.2187 134.502 72.9999 134.502V133.158C39.9612 133.158 13.178 106.374 13.178 73.3357H11.8337ZM72.9999 12.1695C39.2187 12.1695 11.8337 39.5545 11.8337 73.3357H13.178C13.178 40.297 39.9612 13.5138 72.9999 13.5138V12.1695ZM134.166 73.3357C134.166 39.5545 106.781 12.1695 72.9999 12.1695V13.5138C106.039 13.5138 132.822 40.297 132.822 73.3357H134.166ZM57.5404 73.3406V65.0869H56.1961V73.3406H57.5404ZM57.5404 81.5943V73.3406H56.1961V81.5943H57.5404ZM73.1434 90.6608C68.7003 93.2371 64.8164 93.3842 62.0858 91.7974C59.3538 90.2097 57.5404 86.7496 57.5404 81.5943H56.1961C56.1961 87.035 58.1205 91.0479 61.4104 92.9597C64.7018 94.8724 69.1241 94.5454 73.8177 91.8237L73.1434 90.6608ZM80.2303 86.5345L73.1424 90.6614L73.8188 91.8231L80.9067 87.6963L80.2303 86.5345ZM87.3182 82.4077L80.2303 86.5345L80.9067 87.6963L87.9946 83.5694L87.3182 82.4077ZM87.3192 64.2742C91.7615 66.8501 93.8368 70.1619 93.8368 73.3406C93.8368 76.5194 91.7615 79.8312 87.3192 82.4071L87.9936 83.57C92.6881 80.8479 95.1811 77.1608 95.1811 73.3406C95.1811 69.5205 92.6881 65.8334 87.9936 63.1112L87.3192 64.2742ZM80.2303 60.1467L87.3182 64.2736L87.9946 63.1119L80.9067 58.985L80.2303 60.1467ZM73.1424 56.0199L80.2303 60.1467L80.9067 58.985L73.8188 54.8581L73.1424 56.0199ZM57.5404 65.0869C57.5404 59.9024 59.3546 56.4439 62.0848 54.8636C64.8146 53.2836 68.6986 53.4432 73.1434 56.0205L73.8177 54.8575C69.1258 52.1369 64.7037 51.7945 61.4114 53.7001C58.1197 55.6053 56.1961 59.6197 56.1961 65.0869H57.5404Z" fill="white"/>
</svg>
