<svg width="48" height="61" viewBox="0 0 48 61" fill="none" xmlns="http://www.w3.org/2000/svg">
<path d="M31.3262 32.611V25.89C31.3262 24.8725 30.9744 23.8926 30.3212 23.1011L26.3514 18.3399C25.5222 17.3474 24.3036 16.7695 23.0097 16.7695H16.251H9.49227C8.19831 16.7695 6.97973 17.3474 6.15059 18.3399L2.18078 23.1011C1.52752 23.88 1.17578 24.8725 1.17578 25.89V55.136C1.17578 57.5354 3.12299 59.4826 5.52246 59.4826H16.251H26.9795C29.379 59.4826 31.3262 57.5354 31.3262 55.136V51.2164" stroke="#212121" stroke-width="1.87381" stroke-miterlimit="10" stroke-linejoin="round"/>
<path d="M43.3992 50.701H31.8164C30.1582 50.701 28.814 49.3568 28.814 47.6985V36.1157C28.814 34.4575 30.1582 33.1133 31.8164 33.1133H43.3992C45.0575 33.1133 46.4017 34.4575 46.4017 36.1157V47.6985C46.4017 49.3568 45.0575 50.701 43.3992 50.701Z" stroke="#212121" stroke-width="1.87381" stroke-miterlimit="10" stroke-linejoin="round"/>
<path d="M13.7388 23.0635H18.7638" stroke="#212121" stroke-width="1.87381" stroke-miterlimit="10" stroke-linecap="round" stroke-linejoin="round"/>
<path d="M16.251 23.0636V7.98837C16.251 4.52107 19.065 1.70703 22.5323 1.70703H31.3262C34.7935 1.70703 37.6075 4.52107 37.6075 7.98837V11.6692C37.6075 13.3401 37.6075 38.1388 37.6075 38.1388" stroke="#212121" stroke-width="1.87381" stroke-miterlimit="10" stroke-linejoin="round"/>
<path d="M35.0952 38.1387H40.1203" stroke="#212121" stroke-width="1.87381" stroke-miterlimit="10" stroke-linecap="round" stroke-linejoin="round"/>
</svg>
