<svg width="20" height="20" viewBox="0 0 20 20" fill="none" xmlns="http://www.w3.org/2000/svg">
<path d="M16.5587 9.41635L17.273 10.5129H16.5587V18.7276H3.47598V10.7173L2.46094 10.42L3.47598 9.41635L10.0173 2.70703L16.5587 9.41635Z" fill="white"/>
<path d="M5.5625 18.7278V11.4424H9.19032V18.7278" fill="#C7D7E2"/>
<path d="M10.0187 1.25781L1.29688 9.99294L2.4059 11.0895L10.0187 3.26503L17.6315 11.0895L18.7405 9.99294L16.56 7.81845V2.70747H14.3796V5.62537L10.0187 1.25781Z" fill="#C7D7E2"/>
<path d="M7.10156 8.91465C7.68427 5.68079 12.3271 5.68079 12.9098 8.91465H7.10156Z" fill="#C7D7E2"/>
<path d="M16.5568 19.2853H3.4741C3.15455 19.2853 2.91019 19.0437 2.91019 18.7277V11.275H2.02673C1.87635 11.275 1.72598 11.2192 1.61319 11.1077L0.88011 10.3829C0.654547 10.1599 0.654547 9.82534 0.88011 9.60232L9.60191 0.867196C9.80868 0.662757 10.1846 0.662757 10.4102 0.867196L13.7936 4.26832V2.70715C13.7936 2.3912 14.038 2.14959 14.3576 2.14959H16.538C16.8576 2.14959 17.1019 2.3912 17.1019 2.70715V7.57651L19.1132 9.60232C19.3388 9.82534 19.3388 10.1599 19.1132 10.3829L18.3801 11.1077C18.2673 11.2192 18.1358 11.275 17.9854 11.275H17.1019V18.7277C17.1207 19.0437 16.8576 19.2853 16.5568 19.2853ZM4.03801 18.1702H15.9741V10.7174C15.9741 10.5688 16.0305 10.4201 16.1433 10.3271C16.2561 10.2156 16.4064 10.1599 16.538 10.1599H17.7598L17.929 9.99261L16.1433 8.20842C16.0305 8.09691 15.9741 7.96681 15.9741 7.81812V3.26471H14.9215V5.62505C14.9215 5.84808 14.7899 6.05251 14.5643 6.14544C14.3576 6.23837 14.1132 6.18261 13.944 6.01534L10.0154 2.05666L2.10192 9.99261L2.27109 10.1599H3.49289C3.64327 10.1599 3.79364 10.2156 3.88763 10.3271C4.00041 10.4387 4.0568 10.5688 4.0568 10.7174L4.03801 18.1702Z" fill="#454B54"/>
<path d="M14.4716 11.4424H10.8438V15.0851H14.4716V11.4424Z" fill="#C7D7E2"/>
<path d="M7.3659 13.9887C7.77077 13.9887 8.09898 13.6642 8.09898 13.2639C8.09898 12.8636 7.77077 12.5391 7.3659 12.5391C6.96103 12.5391 6.63281 12.8636 6.63281 13.2639C6.63281 13.6642 6.96103 13.9887 7.3659 13.9887Z" fill="#E3F3F7"/>
</svg>
