<svg width="112" height="112" viewBox="0 0 112 112" fill="none" xmlns="http://www.w3.org/2000/svg">
<g filter="url(#filter0_d_2459_635)">
<path d="M0 56C0 25.0721 25.0721 0 56 0C86.9279 0 112 25.0721 112 56C112 86.9279 86.9279 112 56 112C25.0721 112 0 86.9279 0 56Z" fill="#F7F7F7"/>
<path d="M2.1875 56C2.1875 26.2802 26.2802 2.1875 56 2.1875C85.7198 2.1875 109.813 26.2802 109.813 56C109.813 85.7198 85.7198 109.813 56 109.813C26.2802 109.813 2.1875 85.7198 2.1875 56Z" stroke="#212121" stroke-width="4.375"/>
</g>
<path fill-rule="evenodd" clip-rule="evenodd" d="M0 56C0 25.0721 25.0721 0 56 0C86.9279 0 112 25.0721 112 56C112 86.9279 86.9279 112 56 112C25.0721 112 0 86.9279 0 56ZM21.1346 94.1645C10.7939 84.7125 4.30769 71.1137 4.30769 56C4.30769 27.4511 27.4511 4.30769 56 4.30769C84.5489 4.30769 107.692 27.4511 107.692 56C107.692 71.3011 101.044 85.0494 90.4791 94.5141L87.9528 92.9559L71.0628 84.5119C69.5467 83.7538 68.6052 82.2298 68.6052 80.5362V74.6376C68.9962 74.1548 69.4091 73.6083 69.836 73.0078C72.0223 69.9199 73.7757 66.4848 75.0544 62.7884C77.5818 61.5876 79.2135 59.0701 79.2135 56.2275V49.1559C79.2135 47.4264 78.5792 45.7488 77.4442 44.4302V35.1205C77.5479 34.0852 77.9149 28.2424 73.6879 23.423C70.0115 19.2259 64.061 17.1014 56 17.1014C47.939 17.1014 41.9885 19.2259 38.3121 23.421C34.0851 28.2404 34.4521 34.0832 34.5558 35.1185V44.4282C33.4228 45.7468 32.7865 47.4244 32.7865 49.1539V56.2255C32.7865 58.4218 33.7719 60.4705 35.4595 61.8529C37.0753 68.1824 40.4006 72.9739 41.6294 74.5977V80.3706C41.6294 81.9984 40.7417 83.4945 39.3115 84.2765L23.5385 92.8801L21.1346 94.1645ZM24.3415 96.8667C33.0884 103.653 44.0724 107.692 56 107.692C67.7606 107.692 78.6039 103.765 87.2898 97.1501L86.1694 96.5246L69.2794 88.0806C66.4029 86.6443 64.6156 83.7518 64.6156 80.5362V73.1574L65.1103 72.5929C65.5471 72.0922 66.0558 71.4379 66.5784 70.6998C68.7049 67.6957 70.3805 64.3185 71.5575 60.662L71.8767 59.6745L72.8681 59.3693C74.2565 58.9405 75.2239 57.6498 75.2239 56.2275V49.1559C75.2239 48.2284 74.829 47.3626 74.1128 46.7163L73.4545 46.1218L73.4725 34.7495C73.4852 34.6307 74.0011 29.7907 70.6538 26.0102C67.7614 22.7467 62.8342 21.091 56 21.091C49.1399 21.091 44.1967 22.7607 41.3123 26.0481C37.933 29.9001 38.5215 34.6976 38.5275 34.7455L38.5455 35.0068V46.1178L37.8872 46.7123C37.169 47.3606 36.7761 48.2244 36.7761 49.1519V56.2235C36.7761 57.3426 37.3506 58.3799 38.3101 59.0003L38.9903 59.4412L39.1718 60.2311C40.8016 67.3346 45.1143 72.5809 45.1582 72.6308L45.617 73.1854L45.619 80.3706C45.619 83.4606 43.9334 86.2992 41.2205 87.7794L25.4476 96.3829L24.3415 96.8667Z" fill="#D3D3D3"/>
<defs>
<filter id="filter0_d_2459_635" x="-5.6875" y="-3.91016" width="123.375" height="123.375" filterUnits="userSpaceOnUse" color-interpolation-filters="sRGB">
<feFlood flood-opacity="0" result="BackgroundImageFix"/>
<feColorMatrix in="SourceAlpha" type="matrix" values="0 0 0 0 0 0 0 0 0 0 0 0 0 0 0 0 0 0 127 0" result="hardAlpha"/>
<feOffset dy="1.77734"/>
<feGaussianBlur stdDeviation="2.84375"/>
<feColorMatrix type="matrix" values="0 0 0 0 0 0 0 0 0 0 0 0 0 0 0 0 0 0 0.1 0"/>
<feBlend mode="normal" in2="BackgroundImageFix" result="effect1_dropShadow_2459_635"/>
<feBlend mode="normal" in="SourceGraphic" in2="effect1_dropShadow_2459_635" result="shape"/>
</filter>
</defs>
</svg>
