<svg width="18" height="18" viewBox="0 0 18 18" fill="none" xmlns="http://www.w3.org/2000/svg">
<path fill-rule="evenodd" clip-rule="evenodd" d="M8.98523 11.647C7.71122 11.647 7.07422 11.01 7.07422 9.73596C7.07422 8.46195 7.7159 7.82495 8.99928 7.82495C10.2827 7.82495 10.9243 8.46195 10.9243 9.73596C10.9243 11.01 10.278 11.647 8.98523 11.647ZM7.18735 3.75H10.7845L11.8806 4.93033H13.7916C14.1288 4.93033 14.4145 5.04742 14.6487 5.28162C14.8829 5.51581 15 5.80152 15 6.13876V13.3331C15 13.6704 14.8829 13.9561 14.6487 14.1903C14.4145 14.4245 14.1288 14.5416 13.7916 14.5416H4.20843C3.87119 14.5416 3.58548 14.4245 3.35129 14.1903C3.11709 13.9561 3 13.6704 3 13.3331V6.13876C3 5.80152 3.11709 5.51581 3.35129 5.28162C3.58548 5.04742 3.87119 4.93033 4.20843 4.93033H6.09133L7.18735 3.75ZM6.87901 11.8719C7.45981 12.4527 8.16237 12.7431 8.98674 12.7431C9.8111 12.7431 10.5183 12.448 11.1085 11.8578C11.6987 11.2676 11.9938 10.5604 11.9938 9.73603C11.9938 8.91167 11.6987 8.20442 11.1085 7.61425C10.5183 7.02408 9.8111 6.729 8.98674 6.729C8.16237 6.729 7.45981 7.02408 6.87901 7.61425C6.29821 8.20442 6.00781 8.91167 6.00781 9.73603C6.00781 10.5604 6.29821 11.2723 6.87901 11.8719Z" fill="white"/>
</svg>
