<svg width="18" height="17" viewBox="0 0 18 17" fill="none" xmlns="http://www.w3.org/2000/svg">
<path d="M16.6831 12.2813H5.1538L5.73268 11.0575L15.351 11.0395C15.6763 11.0395 15.9551 10.7983 16.0132 10.4647L17.3452 2.72621C17.38 2.52325 17.3278 2.31426 17.2 2.15551C17.1368 2.07738 17.0581 2.01445 16.9691 1.97108C16.8802 1.9277 16.7832 1.90493 16.685 1.90433L4.44907 1.86213L4.34453 1.35172C4.2787 1.02618 3.99603 0.789062 3.67465 0.789062H0.68343C0.502173 0.789063 0.32834 0.863797 0.200172 0.996826C0.0720041 1.12985 0 1.31028 0 1.49841C0 1.68654 0.0720041 1.86697 0.200172 2C0.32834 2.13302 0.502173 2.20776 0.68343 2.20776H3.12093L3.57784 4.4624L4.7027 10.1151L3.25452 12.5687C3.17932 12.674 3.13402 12.7991 3.12375 12.9298C3.11349 13.0605 3.13867 13.1916 3.19644 13.3082C3.3126 13.5473 3.54687 13.698 3.8063 13.698H5.02215C4.76294 14.0553 4.62294 14.4906 4.62332 14.9379C4.62332 16.0752 5.51391 16.9996 6.60972 16.9996C7.70553 16.9996 8.59612 16.0752 8.59612 14.9379C8.59612 14.4897 8.45285 14.0537 8.19729 13.698H11.3163C11.0571 14.0553 10.9171 14.4906 10.9175 14.9379C10.9175 16.0752 11.808 16.9996 12.9039 16.9996C13.9997 16.9996 14.8903 16.0752 14.8903 14.9379C14.8903 14.4897 14.747 14.0537 14.4914 13.698H16.685C17.0606 13.698 17.3684 13.3805 17.3684 12.9887C17.3673 12.8007 17.2946 12.6209 17.1662 12.4884C17.0378 12.3558 16.8641 12.2814 16.6831 12.2813ZM4.73367 3.26073L15.8815 3.29891L14.7896 9.64487L6.03277 9.66094L4.73367 3.26073ZM6.60972 15.5729C6.27284 15.5729 5.99792 15.2875 5.99792 14.9379C5.99792 14.5882 6.27284 14.3029 6.60972 14.3029C6.94659 14.3029 7.22152 14.5882 7.22152 14.9379C7.22152 15.1063 7.15706 15.2678 7.04232 15.3869C6.92759 15.506 6.77198 15.5729 6.60972 15.5729ZM12.9039 15.5729C12.567 15.5729 12.2921 15.2875 12.2921 14.9379C12.2921 14.5882 12.567 14.3029 12.9039 14.3029C13.2407 14.3029 13.5157 14.5882 13.5157 14.9379C13.5157 15.1063 13.4512 15.2678 13.3365 15.3869C13.2217 15.506 13.0661 15.5729 12.9039 15.5729Z" fill="black"/>
</svg>
