<svg width="16" height="16" viewBox="0 0 16 16" fill="none" xmlns="http://www.w3.org/2000/svg">
<path fill-rule="evenodd" clip-rule="evenodd" d="M0 15.217C0 15.6495 0.350633 16.0002 0.783162 16.0002H14.9247C15.3572 16.0002 15.7078 15.6495 15.7078 15.217C15.7078 14.7845 15.3572 14.4338 14.9247 14.4338H0.783163C0.350634 14.4338 0 14.7845 0 15.217ZM5.5 10.5183V8.41163L9.97909 4.27575L11.5428 5.99558L7.54752 10.5183H5.5ZM12.3763 2.11657L13.7586 3.49102L12.6818 4.63052L11.2422 3.19499L12.3763 2.11657ZM15.3467 4.42182C15.7129 4.02801 15.7021 3.41509 15.3222 3.03445L12.9748 0.682279C12.5948 0.301575 11.9818 0.289587 11.5873 0.655146L4.25003 7.45359C4.04578 7.64284 3.92969 7.90868 3.92969 8.18712V11.0844C3.92969 11.6367 4.3774 12.0844 4.92969 12.0844H7.78543C8.06325 12.0844 8.32854 11.9689 8.51773 11.7654L15.3467 4.42182Z" fill="#08BFB0"/>
</svg>
