<svg width="54" height="48" viewBox="0 0 54 48" fill="none" xmlns="http://www.w3.org/2000/svg">
<path d="M53.9989 17.6876C53.9991 17.4722 53.9346 17.2548 53.7981 17.0673C53.7509 17.0024 53.6972 16.9452 53.6393 16.8944C53.6395 16.8943 53.6396 16.8942 53.6398 16.894L50 13.7085C50.7843 13.077 51.2873 12.1098 51.2873 11.0269V9.29614C51.2873 4.64371 47.5023 0.858643 42.8498 0.858643C38.1974 0.858643 34.4123 4.64371 34.4123 9.29614C34.4123 13.9486 38.1974 17.7336 42.8498 17.7336C43.4323 17.7336 43.9045 17.2615 43.9045 16.679C43.9045 16.0965 43.4323 15.6243 42.8498 15.6243C39.3605 15.6243 36.5217 12.7855 36.5217 9.29614C36.5217 5.80682 39.3605 2.96802 42.8498 2.96802C46.3392 2.96802 49.178 5.80682 49.178 9.29614V11.0269C49.178 11.762 48.58 12.36 47.8447 12.36C47.1096 12.36 46.5116 11.762 46.5116 11.0269V9.56952V6.53729C46.5116 6.24725 46.3922 5.97008 46.1815 5.77085C45.2768 4.9156 44.0936 4.44458 42.8498 4.44458C40.1747 4.44458 37.9983 6.62103 37.9983 9.29614C37.9983 11.9713 40.1747 14.1477 42.8498 14.1477C43.755 14.1477 44.6275 13.8971 45.3846 13.4316C45.9899 14.0507 46.8259 14.4424 47.7522 14.4671C47.8089 14.566 47.8817 14.6578 47.9722 14.7371L51.257 17.6117L42.8203 23.7495V20.9999C42.8203 20.4174 42.3481 19.9452 41.7656 19.9452C41.1831 19.9452 40.7109 20.4174 40.7109 20.9999V25.284L32.8373 31.0122L27.6205 27.217C27.2506 26.9478 26.7494 26.9478 26.3795 27.217L21.1627 31.0122L2.7888 17.6449L8.79029 12.3927C9.22862 12.0091 9.27292 11.3428 8.88933 10.9044C8.50563 10.4661 7.83939 10.4218 7.40106 10.8054L0.388969 16.8697C0.388547 16.8702 0.388125 16.8705 0.387703 16.8709C0.151137 17.0643 0 17.3583 0 17.6877V46.9451C0 47.5276 0.472184 47.9998 1.05469 47.9998H52.9453C53.5278 47.9998 54 47.5276 54 46.9451V17.6877C53.9997 17.6877 53.9993 17.6876 53.9989 17.6876ZM44.4023 9.56962V11.027V11.5559C43.948 11.8693 43.4097 12.0383 42.8499 12.0383C41.338 12.0383 40.1078 10.8081 40.1078 9.29614C40.1078 7.78414 41.338 6.55396 42.8499 6.55396C43.4098 6.55396 43.948 6.72302 44.4023 7.03637V9.56962ZM2.10938 19.7592L19.37 32.3164L2.10938 44.8736V19.7592ZM4.29722 45.8904L27 29.374L49.7028 45.8904H4.29722ZM51.8906 44.8736L34.63 32.3164L51.8906 19.7592V44.8736Z" fill="black"/>
</svg>
