<svg width="25" height="24" viewBox="0 0 25 24" fill="none" xmlns="http://www.w3.org/2000/svg">
<path d="M12.9821 0.630048L12.9677 0.616992H12.9484H11.6552H11.6358L11.6215 0.630074L0.21628 11.0474L0.177653 11.0827L0.214645 11.1197L1.48987 12.3949L1.52356 12.4286L1.55884 12.3966L3.27132 10.8416V22.4356V22.4563L3.28596 22.471L4.18401 23.369L4.19865 23.3837H4.21936H9.60763H9.62834L9.64299 23.369L10.541 22.471L10.5557 22.4563V22.4356V16.1993H14.0479V22.4356V22.4563L14.0625 22.471L14.9606 23.369L14.9752 23.3837H14.9959H20.3842H20.4049L20.4195 23.369L21.3176 22.471L21.3322 22.4563V22.4356V10.8272L23.0627 12.3966L23.098 12.4286L23.1316 12.3949L24.4069 11.1197L24.4439 11.0827L24.4052 11.0474L12.9821 0.630048ZM8.67423 15.2159L8.65959 15.2305V15.2513V21.4876H5.16741V9.11818L12.3018 2.63837L19.4361 9.10743V21.4876H15.944V15.2513V15.2305L15.9293 15.2159L15.0313 14.3178L15.0166 14.3032H14.9959H9.60763H9.58692L9.57228 14.3178L8.67423 15.2159Z" fill="#212121" stroke="#212121" stroke-width="0.1"/>
</svg>
