<svg width="16" height="20" viewBox="0 0 16 20" fill="none" xmlns="http://www.w3.org/2000/svg">
<path d="M5.30296 9.91466L4.39751 9.05255L4.21721 8.88088C4.19731 8.86192 4.19216 8.84339 4.19216 8.82873C4.19216 8.81407 4.19731 8.79554 4.21721 8.77659C4.23835 8.75646 4.26978 8.74283 4.30751 8.74283C4.34522 8.74283 4.37665 8.75645 4.39779 8.77657C4.39779 8.77658 4.3978 8.77658 4.3978 8.77659L5.62846 9.94843L5.62847 9.94844C5.64838 9.96739 5.65352 9.98593 5.65352 10.0006C5.65352 10.0152 5.64838 10.0338 5.62847 10.0527L4.39779 11.2245C4.37661 11.2447 4.34516 11.2583 4.30745 11.2583C4.26974 11.2583 4.23832 11.2447 4.21717 11.2245C4.19727 11.2056 4.19212 11.1871 4.19212 11.1724C4.19212 11.1577 4.19727 11.1392 4.21717 11.1203L4.39747 10.9486L5.30291 10.0865H4.05269H0.615355C0.575167 10.0865 0.544368 10.0714 0.524913 10.0529C0.505903 10.0348 0.5 10.0165 0.5 10.0006C0.5 9.98462 0.505903 9.96638 0.524913 9.94828C0.544368 9.92976 0.575168 9.91466 0.615355 9.91466H4.05273H5.30296ZM15.4273 2.85159L15.4277 2.85169C15.4838 2.86946 15.4992 2.90937 15.4992 2.93061V17.0705C15.4992 17.0918 15.4838 17.1317 15.4277 17.1494L15.4273 17.1495L8.04306 19.4932L8.04064 19.494C8.00345 19.506 7.95667 19.5003 7.92232 19.4772C7.89251 19.4564 7.88422 19.4311 7.88422 19.4142V0.586977C7.88422 0.570114 7.89249 0.544795 7.9223 0.523933C7.95914 0.499183 8.00168 0.494346 8.03782 0.506257L8.03781 0.506286L8.04306 0.507953L15.4273 2.85159Z" stroke="#454B54"/>
</svg>
