<svg width="119" height="48" viewBox="0 0 119 48" fill="none" xmlns="http://www.w3.org/2000/svg">
<path d="M82.8347 6.88493H65.4665C64.8182 6.84818 64.1843 7.07728 63.725 7.51437C63.2657 7.95146 63.025 8.55472 63.0636 9.17176V37.4452C63.0636 39.064 64.1035 40.1119 65.7141 40.1119C67.2723 40.1119 68.318 39.0391 68.318 37.4452V25.9031H80.3938C81.9259 25.9031 82.9978 24.9245 82.9978 23.522C82.9978 22.1692 81.9026 21.188 80.3938 21.188H68.318V11.6027H82.8347C84.3667 11.6027 85.4356 10.6242 85.4356 9.22165C85.4269 7.86619 84.3404 6.88493 82.8347 6.88493Z" fill="#08BFB0"/>
<path d="M110.305 35.3591H95.7741V25.7048H107.873C109.401 25.7048 110.468 24.7166 110.468 23.3039C110.468 21.9414 109.375 20.9531 107.873 20.9531H95.7712V11.6339H110.302C111.831 11.6339 112.898 10.6484 112.898 9.2357C112.898 7.87328 111.808 6.88496 110.302 6.88496H92.9231C92.2762 6.84794 91.6437 7.0787 91.1855 7.51893C90.7271 7.95916 90.4869 8.56677 90.5255 9.18824V37.8047C90.4869 38.4263 90.7271 39.0338 91.1855 39.4741C91.6437 39.9143 92.2762 40.145 92.9231 40.108H110.302C111.831 40.108 112.898 39.1226 112.898 37.7098C112.9 36.3474 111.811 35.3591 110.305 35.3591Z" fill="#08BFB0"/>
<path d="M18.22 11.4826C20.6769 11.4826 22.3725 12.4272 23.8952 14.6413C24.5059 15.5562 25.1947 15.9677 26.1262 15.9677C26.756 15.9891 27.3666 15.7555 27.812 15.3228C28.2573 14.89 28.4973 14.2971 28.4744 13.6859C28.4657 13.1613 28.3157 12.6481 28.0393 12.1972C26.1458 8.87056 22.4756 6.8811 18.22 6.8811C12.5977 6.8811 8.72681 9.54725 7.02842 14.5899C6.23082 16.9583 6.10254 19.1562 6.10254 23.4978C6.10254 27.8395 6.23082 30.0347 7.02842 32.403C8.72681 37.4457 12.6061 40.1119 18.22 40.1119C22.4756 40.1119 26.1458 38.1224 28.0421 34.7904C28.3188 34.3397 28.4688 33.8263 28.4772 33.3017C28.4992 32.6907 28.259 32.0982 27.8138 31.6656C27.3687 31.2331 26.7586 30.9993 26.129 31.0199C25.1947 31.0199 24.5059 31.4314 23.898 32.3516C22.3781 34.563 20.6825 35.5076 18.2256 35.5076C14.2626 35.5076 12.6144 33.0121 11.9312 30.9062C11.4598 29.5312 11.1865 27.8773 11.1865 23.4843C11.1865 19.0912 11.4543 17.4374 11.9228 16.0841C12.6088 13.9809 14.257 11.4826 18.22 11.4826Z" fill="#08BFB0"/>
<g opacity="0.15">
<path fillRule="evenodd" clipRule="evenodd" d="M47.2787 7.77344H45.2748V9.66184C45.2748 11.42 45.0905 12.3317 44.9292 13.2216C44.7681 14.0464 44.6068 14.9147 44.6068 16.2387C44.6068 17.693 44.9523 19.0822 45.2748 20.4062C45.5972 21.6651 45.8737 22.8806 45.8737 24.0745C45.8737 25.2683 45.5742 26.4622 45.2748 27.7428C44.9523 29.0885 44.6068 30.456 44.6068 31.9103C44.6068 33.2343 44.7681 34.1026 44.9292 34.9275C45.0215 35.405 45.1136 35.8825 45.1826 36.4903C43.6624 36.4903 42.4646 36.0779 41.5893 35.6002C39.2168 34.3197 37.7195 31.9103 37.7195 29.3056V18.8434C37.7195 16.0216 39.4701 13.4387 42.1882 12.2448L42.3033 12.2014L42.3264 12.0929C42.4415 11.3549 42.4876 10.6169 42.4876 9.68355V8.14244L42.1882 8.22927C37.1897 9.59673 33.6885 13.9596 33.6885 18.8651V29.3274C33.6885 31.9103 34.679 34.4282 36.4296 36.4034C38.2954 38.5089 41.0595 39.9632 43.9619 40.3105C45.7355 40.5058 47.6474 40.5275 49.421 40.2236C49.6974 40.1802 49.2367 36.2515 49.2367 36.2515C49.2367 36.2515 49.0294 34.8189 48.9373 34.2546C48.7991 33.4948 48.6839 32.9088 48.6839 31.9103C48.6839 30.8901 48.9603 29.7831 49.2367 28.5894C49.5822 27.1785 49.9508 25.7024 49.9508 24.0745C49.9508 22.4466 49.5822 20.9706 49.2367 19.5597C48.9373 18.3875 48.6839 17.2589 48.6839 16.2387C48.6839 15.2619 48.7991 14.6542 48.9373 13.8945C49.0524 13.3084 49.1676 12.6789 49.2597 11.789C52.6228 12.6138 55.0644 15.5224 55.0644 18.8217V29.2839C55.0644 31.6064 53.8436 33.7553 51.9548 35.1011C52.093 35.6871 52.3463 37.0763 52.4846 39.2252C56.4004 37.4236 59.0955 33.6468 59.0955 29.2839V18.8434C59.0263 12.7224 53.7745 7.77344 47.2787 7.77344Z" fill="black"/>
<path fillRule="evenodd" clipRule="evenodd" d="M50.6419 24.7909C50.6419 23.163 50.2734 21.6869 49.9278 20.276C49.6284 19.1039 49.3751 17.9752 49.3751 16.955C49.3751 15.9783 49.4902 15.3705 49.6283 14.6108C49.7436 14.0248 49.8588 13.3953 49.9509 12.5054C51.1256 12.7875 52.1852 13.3302 53.0835 14.0682C52.07 12.9829 50.734 12.1581 49.2138 11.7891C49.1216 12.679 49.0064 13.3085 48.8913 13.8945C48.7531 14.6542 48.6379 15.2403 48.6379 16.2388C48.6379 17.2589 48.9143 18.3659 49.1908 19.5598C49.5362 20.9923 49.9049 22.4466 49.9049 24.0746C49.9049 25.7025 49.5362 27.1785 49.1908 28.5893C48.8913 29.7832 48.6379 30.8902 48.6379 31.9104C48.6379 32.8871 48.7531 33.4949 48.8913 34.2545C49.0064 34.7972 49.1908 36.2516 49.1908 36.2516C49.1908 36.2516 49.6514 40.1803 49.3751 40.2237C47.6014 40.5275 45.6896 40.5059 43.9159 40.3105C41.5433 40.0283 39.2629 39.0081 37.4663 37.4671C39.286 39.3555 41.7967 40.636 44.4687 40.9617C46.3115 41.1788 48.2694 41.2222 50.1121 40.9399C50.3886 40.8965 49.9278 36.9678 49.9278 36.9678C49.9278 36.9678 49.7206 35.5352 49.6283 34.9709C49.4902 34.2112 49.3751 33.6251 49.3751 32.6266C49.3751 31.6065 49.6514 30.4995 49.9278 29.3057C50.2965 27.873 50.6419 26.4188 50.6419 24.7909Z" fill="black"/>
<path fillRule="evenodd" clipRule="evenodd" d="M55.9628 11.3767C57.8747 13.3519 59.0264 15.9566 59.0264 18.8435V29.3057C59.0264 33.6686 56.3313 37.4453 52.4155 39.247L53.1756 39.9633C57.0915 38.1617 59.7865 34.3849 59.7865 30.022V19.5598C59.7865 16.3256 58.3122 13.3953 55.9628 11.3767Z" fill="black"/>
<path fillRule="evenodd" clipRule="evenodd" d="M42.4645 9.66198C42.4645 10.5953 42.4184 11.3333 42.3032 12.0713L42.2802 12.1799L42.165 12.2233C39.447 13.4171 37.6963 16.0001 37.6963 18.8218V29.284C37.6963 31.4112 38.7098 33.4081 40.3683 34.7756C39.1705 33.4732 38.4564 31.7802 38.4564 30.0003V19.5598C38.4564 16.7381 40.2071 14.1551 42.9251 12.9613L43.0403 12.9179L43.0633 12.8093C43.1785 12.0713 43.2246 11.3333 43.2246 10.4V8.85887L42.4645 8.14258V9.07592V9.66198Z" fill="black"/>
<path fillRule="evenodd" clipRule="evenodd" d="M56.1374 11.4756C53.9687 9.27131 50.8438 7.88818 47.3458 7.88818H45.317V9.76836C45.317 11.5189 45.1305 12.4265 44.9672 13.3126C44.804 14.1338 44.6407 14.9983 44.6407 16.3166C44.6407 17.7645 44.9906 19.1476 45.317 20.466C45.6435 21.7194 45.9234 22.9296 45.9234 24.1182C45.9234 25.3069 45.6202 26.4955 45.317 27.7705C44.9906 29.1104 44.6407 30.4719 44.6407 31.9198C44.6407 33.2382 44.804 34.1026 44.9672 34.9239C45.0605 35.3993 45.1537 35.8747 45.2237 36.4798C43.6847 36.4798 42.472 36.0692 41.5859 35.5938C41.1428 35.3561 40.7463 35.0751 40.35 34.7725C39.1374 33.4759 38.4145 31.7903 38.4145 30.0181V19.623C38.4145 16.8136 40.1867 14.2419 42.9384 13.0533L43.055 13.0101L43.0783 12.902C43.1949 12.1672 43.2416 11.4324 43.2416 10.5031V8.94713L42.472 8.23396L42.2855 8.29879L42.1689 8.32041C37.1085 9.68192 33.564 14.0258 33.564 18.9099V29.3265C33.564 31.8983 34.5667 34.4051 36.3389 36.3718C36.6655 36.7392 37.0386 37.1066 37.435 37.4307C39.3005 39.3325 41.9589 40.6508 44.7108 40.975C46.5064 41.1695 48.4419 41.1911 50.2375 40.8885C50.5173 40.8453 50.0509 36.9337 50.0509 36.9337C50.0509 36.9337 49.8411 35.5073 49.7478 34.9454C49.6079 34.1891 49.4912 33.6056 49.4912 32.6114C49.4912 31.5957 49.7711 30.4935 50.0509 29.305C50.4007 27.9218 50.7505 26.4523 50.7505 24.8313C50.7505 23.2105 50.3774 21.7409 50.0276 20.3363C49.7244 19.1693 49.4679 18.0454 49.4679 17.0297C49.4679 16.0572 49.5845 15.4521 49.7244 14.6957C49.8411 14.1122 49.9576 13.4855 50.0509 12.5994C51.2402 12.8804 52.3129 13.4207 53.199 14.1554C54.4116 15.4521 55.1346 17.1162 55.1346 18.9099V29.3265C55.1346 31.6389 53.8987 33.7785 51.9864 35.1184C52.1264 35.7018 52.3828 37.0849 52.5227 39.2245L53.2924 39.9376L53.4089 39.8944C57.3033 38.0791 60.0084 34.3619 60.0084 30.0397V19.623C60.0084 16.403 58.516 13.5071 56.1374 11.4756Z" fill="black"/>
</g>
<path fillRule="evenodd" clipRule="evenodd" d="M46.1852 6.8811H44.1741V8.74429C44.1741 10.479 43.9892 11.3785 43.8273 12.2565C43.6656 13.0703 43.5037 13.927 43.5037 15.2333C43.5037 16.6682 43.8505 18.0388 44.1741 19.3452C44.4977 20.5873 44.7752 21.7866 44.7752 22.9644C44.7752 24.1424 44.4746 25.3202 44.1741 26.5838C43.8505 27.9116 43.5037 29.2608 43.5037 30.6957C43.5037 32.002 43.6656 32.8587 43.8273 33.6725C43.9198 34.1436 44.0122 34.6147 44.0816 35.2144C42.556 35.2144 41.354 34.8075 40.4756 34.3364C38.0947 33.0728 36.5922 30.6957 36.5922 28.1257V17.8032C36.5922 15.0192 38.3489 12.4707 41.0766 11.2928L41.1922 11.25L41.2153 11.1429C41.3308 10.4147 41.3771 9.68659 41.3771 8.76571V7.22376L41.0766 7.30942C36.0605 8.65863 32.5469 12.9632 32.5469 17.8032V28.1257C32.5469 30.6742 33.5408 33.1585 35.2977 35.1073C37.1701 37.1847 39.9439 38.6196 42.8565 38.9622C44.6364 39.155 46.555 39.1763 48.3349 38.8765C48.6124 38.8337 48.15 34.9575 48.15 34.9575C48.15 34.9575 47.942 33.544 47.8496 32.9871C47.7108 32.2376 47.5953 31.6594 47.5953 30.6742C47.5953 29.6677 47.8726 28.5755 48.15 27.3976C48.4967 26.0056 48.8666 24.5493 48.8666 22.9431C48.8666 21.3369 48.4967 19.8806 48.15 18.4886C47.8496 17.3321 47.5953 16.2185 47.5953 15.2119C47.5953 14.2482 47.7108 13.6486 47.8496 12.899C47.9651 12.3208 48.0807 11.6997 48.1732 10.8216C51.5019 11.6569 53.929 14.548 53.929 17.8032V28.1257C53.929 30.4172 52.7038 32.5374 50.8083 33.8652C50.947 34.4434 51.2013 35.814 51.34 37.9342C55.2697 36.1568 57.9742 32.4304 57.9742 28.1257V17.8032C57.9742 11.7639 52.7038 6.8811 46.1852 6.8811Z" fill="#08BFB0"/>
<path fillRule="evenodd" clipRule="evenodd" d="M49.4864 23.8461C49.4864 22.2263 49.1264 20.7577 48.7888 19.3539C48.4963 18.1876 48.2488 17.0645 48.2488 16.0494C48.2488 15.0775 48.3613 14.4728 48.4963 13.7169C48.6089 13.1337 48.7214 12.5074 48.8114 11.6219C49.959 11.9027 50.9941 12.4426 51.8716 13.1769C50.8815 12.097 49.5764 11.2763 48.0913 10.9092C48.0013 11.7947 47.8887 12.421 47.7763 13.0042C47.6413 13.7601 47.5287 14.3432 47.5287 15.3367C47.5287 16.3518 47.7987 17.4533 48.0688 18.6411C48.4063 20.0666 48.7664 21.5136 48.7664 23.1334C48.7664 24.7532 48.4063 26.2219 48.0688 27.6258C47.7763 28.8136 47.5287 29.9151 47.5287 30.9302C47.5287 31.9021 47.6413 32.5068 47.7763 33.2628C47.8887 33.8027 48.0688 35.2497 48.0688 35.2497C48.0688 35.2497 48.5188 39.159 48.2488 39.2021C46.5162 39.5045 44.6485 39.4829 42.9158 39.2885C40.598 39.0077 38.3704 37.9927 36.6152 36.4592C38.3929 38.3382 40.8456 39.6125 43.4558 39.9365C45.2561 40.1524 47.1687 40.1956 48.9689 39.9148C49.239 39.8717 48.7888 35.9624 48.7888 35.9624C48.7888 35.9624 48.5864 34.537 48.4963 33.9755C48.3613 33.2196 48.2488 32.6364 48.2488 31.643C48.2488 30.6278 48.5188 29.5264 48.7888 28.3385C49.149 26.9131 49.4864 25.466 49.4864 23.8461Z" fill="#C7C7C7"/>
<path fillRule="evenodd" clipRule="evenodd" d="M55.2979 10.9092C57.1445 12.8574 58.2569 15.4265 58.2569 18.2739V28.5931C58.2569 32.8964 55.6539 36.6216 51.8716 38.3985L52.6059 39.105C56.3881 37.3281 58.9912 33.6029 58.9912 29.2997V18.9804C58.9912 15.7905 57.5672 12.9002 55.2979 10.9092Z" fill="#C7C7C7"/>
<path fillRule="evenodd" clipRule="evenodd" d="M41.8787 8.43222C41.8787 9.38505 41.8279 10.1385 41.7007 10.8918L41.6753 11.0026L41.5481 11.047C38.5478 12.2657 36.6152 14.9026 36.6152 17.7833V28.4638C36.6152 30.6354 37.734 32.674 39.5648 34.0699C38.2425 32.7405 37.4543 31.0121 37.4543 29.195V18.5366C37.4543 15.656 39.3868 13.0191 42.3872 11.8004L42.5144 11.756L42.5398 11.6452C42.6669 10.8918 42.7178 10.1385 42.7178 9.18562V7.61234L41.8787 6.8811V7.83394V8.43222Z" fill="#C7C7C7"/>
</svg>
