<svg width="53" height="49" viewBox="0 0 53 49" fill="none" xmlns="http://www.w3.org/2000/svg">
<path d="M4.05833 13.6203L4.5704 14.1321L18.6563 28.2093L4.05833 13.6203ZM4.05833 13.6203V14.3443M4.05833 13.6203V14.3443M4.05833 14.3443V37.2255C4.05833 39.0389 4.77871 40.7781 6.06099 42.0604C7.34327 43.3426 9.08241 44.063 10.8958 44.063H41.4042C43.2176 44.063 44.9567 43.3426 46.239 42.0604C47.5213 40.7781 48.2417 39.0389 48.2417 37.2255V14.3443V13.6203M4.05833 14.3443L48.2417 13.6203M48.2417 13.6203L47.7296 14.1321M48.2417 13.6203L47.7296 14.1321M47.7296 14.1321L33.6437 28.2093C31.6545 30.1934 28.9596 31.3077 26.15 31.3077C23.3405 31.3077 20.6457 30.1935 18.6565 28.2095L47.7296 14.1321ZM10.8958 4.23802L10.8952 4.23802C9.53051 4.24071 8.19781 4.65172 7.06863 5.41818C5.93945 6.18464 5.06547 7.27147 4.55916 8.53881L4.48581 8.72241L4.6256 8.86223L21.3137 25.5525L21.3141 25.5529C22.5984 26.8321 24.3373 27.5503 26.15 27.5503C27.9627 27.5503 29.7016 26.8321 30.9859 25.5529L30.9863 25.5525L47.6744 8.86223L47.8142 8.72241L47.7408 8.53881C47.2345 7.27147 46.3605 6.18464 45.2314 5.41818C44.1022 4.65172 42.7695 4.24071 41.4048 4.23802H41.4042L10.8958 4.23802ZM10.896 0.479688H41.404C44.2132 0.483098 46.9063 1.60056 48.8927 3.58696C50.8792 5.5734 51.9966 8.26663 52 11.0759V37.2252C51.9966 40.0344 50.8792 42.7276 48.8927 44.7141C46.9063 46.7005 44.2131 47.818 41.4038 47.8213H10.8962C8.08694 47.818 5.39371 46.7005 3.40727 44.7141C1.42087 42.7277 0.303411 40.0345 0.3 37.2253V11.0757C0.303411 8.26652 1.42087 5.57336 3.40727 3.58696C5.39367 1.60055 8.08683 0.483098 10.896 0.479688Z" fill="#212121" stroke="#CEF2EF" stroke-width="0.6"/>
</svg>
