<svg width="27" height="25" viewBox="0 0 27 25" fill="none" xmlns="http://www.w3.org/2000/svg">
<path d="M2.02917 6.81016L2.2852 7.06604L9.32816 14.1046L2.02917 6.81016ZM2.02917 6.81016V7.17213M2.02917 6.81016V7.17213M2.02917 7.17213V18.6128C2.02917 19.5195 2.38936 20.389 3.0305 21.0302C3.67164 21.6713 4.54121 22.0315 5.44792 22.0315H20.7021C21.6088 22.0315 22.4784 21.6713 23.1195 21.0302C23.7606 20.389 24.1208 19.5195 24.1208 18.6128V7.17213V6.81016M2.02917 7.17213L24.1208 6.81016M24.1208 6.81016L23.8648 7.06604M24.1208 6.81016L23.8648 7.06604M23.8648 7.06604L16.8218 14.1046C15.8272 15.0967 14.4798 15.6539 13.075 15.6539C11.6703 15.6539 10.3229 15.0968 9.32827 14.1047L23.8648 7.06604ZM5.44792 2.11901L5.44762 2.11901C4.76526 2.12035 4.0989 2.32586 3.53432 2.70909C2.96973 3.09232 2.53274 3.63573 2.27958 4.2694L2.2429 4.36121L2.3128 4.43111L10.6568 12.7762L10.6571 12.7764C11.2992 13.416 12.1686 13.7752 13.075 13.7752C13.9813 13.7752 14.8508 13.416 15.4929 12.7764L15.4932 12.7762L23.8372 4.43111L23.9071 4.36121L23.8704 4.2694C23.6173 3.63574 23.1803 3.09232 22.6157 2.70909C22.0511 2.32586 21.3847 2.12035 20.7024 2.11901H20.7021L5.44792 2.11901ZM1.70363 1.79348C2.69686 0.800257 4.04347 0.241526 5.4481 0.239844L20.702 0.239844C22.1066 0.241549 23.4532 0.800278 24.4464 1.79348C25.4396 2.7867 25.9983 4.13331 26 5.53794V18.6126C25.9983 20.0172 25.4396 21.3638 24.4464 22.357C23.4531 23.3503 22.1065 23.909 20.7019 23.9107H5.4481C4.04347 23.909 2.69686 23.3503 1.70363 22.357C0.710413 21.3638 0.151682 20.0172 0.15 18.6126L0.15 5.53785C0.151705 4.13326 0.710434 2.78668 1.70363 1.79348Z" fill="#212121" stroke="#CEF2EF" stroke-width="0.3"/>
</svg>
