<svg width="24" height="24" viewBox="0 0 24 24" fill="none" xmlns="http://www.w3.org/2000/svg">
<path fill-rule="evenodd" clip-rule="evenodd" d="M3.92599 1.63936C4.54859 1.01676 5.39301 0.666992 6.27349 0.666992H17.7213C18.6018 0.666992 19.4462 1.01676 20.0688 1.63936C20.6914 2.26195 21.0412 3.10637 21.0412 3.98686V21.2731H22.3004C22.8694 21.2731 23.3307 21.7343 23.3307 22.3034C23.3307 22.8724 22.8694 23.3337 22.3004 23.3337H1.69437C1.12534 23.3337 0.664062 22.8724 0.664062 22.3034C0.664062 21.7343 1.12534 21.2731 1.69437 21.2731H2.95362V3.98686C2.95362 3.10637 3.30339 2.26195 3.92599 1.63936ZM5.01423 21.2731V3.98686C5.01423 3.65288 5.1469 3.33258 5.38306 3.09643C5.61922 2.86027 5.93951 2.7276 6.27349 2.7276H17.7213C18.0553 2.7276 18.3756 2.86027 18.6117 3.09643C18.8479 3.33258 18.9806 3.65288 18.9806 3.98686V21.2731H15.3173V16.5795C15.3173 16.0026 15.0881 15.4493 14.6802 15.0414C14.2723 14.6335 13.719 14.4044 13.1422 14.4044H10.8526C10.2757 14.4044 9.72251 14.6335 9.3146 15.0414C8.90669 15.4493 8.67753 16.0026 8.67753 16.5795V21.2731H5.01423ZM10.7381 21.2731H13.2567V16.5795C13.2567 16.5491 13.2446 16.52 13.2231 16.4985C13.2017 16.477 13.1725 16.465 13.1422 16.465H10.8526C10.8223 16.465 10.7931 16.477 10.7717 16.4985C10.7502 16.52 10.7381 16.5491 10.7381 16.5795V21.2731ZM7.53275 6.27642C7.53275 5.7074 7.99403 5.24612 8.56305 5.24612H9.70783C10.2769 5.24612 10.7381 5.7074 10.7381 6.27642C10.7381 6.84544 10.2769 7.30672 9.70783 7.30672H8.56305C7.99403 7.30672 7.53275 6.84544 7.53275 6.27642ZM13.2567 6.27642C13.2567 5.7074 13.7179 5.24612 14.287 5.24612H15.4317C16.0008 5.24612 16.462 5.7074 16.462 6.27642C16.462 6.84544 16.0008 7.30672 15.4317 7.30672H14.287C13.7179 7.30672 13.2567 6.84544 13.2567 6.27642ZM7.53275 10.8555C7.53275 10.2865 7.99403 9.82524 8.56305 9.82524H9.70783C10.2769 9.82524 10.7381 10.2865 10.7381 10.8555C10.7381 11.4246 10.2769 11.8858 9.70783 11.8858H8.56305C7.99403 11.8858 7.53275 11.4246 7.53275 10.8555ZM13.2567 10.8555C13.2567 10.2865 13.7179 9.82524 14.287 9.82524H15.4317C16.0008 9.82524 16.462 10.2865 16.462 10.8555C16.462 11.4246 16.0008 11.8858 15.4317 11.8858H14.287C13.7179 11.8858 13.2567 11.4246 13.2567 10.8555Z" fill="#212121"/>
</svg>
