<svg width="26" height="26" viewBox="0 0 26 26" fill="none" xmlns="http://www.w3.org/2000/svg">
<rect x="11.1406" y="9.76953" width="5.57143" height="0.807454" rx="0.403727" fill="#9EB9D3"/>
<path d="M4.94531 22.2853C4.94531 22.5492 5.11113 22.7847 5.35962 22.8737C5.60812 22.9627 5.88573 22.886 6.05327 22.682L7.5041 20.9158L8.62963 22.6285C8.7452 22.8044 8.94151 22.9103 9.15195 22.9103C9.36238 22.9103 9.55869 22.8044 9.67426 22.6285L10.7438 21.001L11.8133 22.6285C11.9289 22.8044 12.1252 22.9103 12.3356 22.9103C12.5461 22.9103 12.7424 22.8044 12.8579 22.6285L13.9275 21.001L14.997 22.6285C15.1125 22.8044 15.3089 22.9103 15.5193 22.9103C15.7297 22.9103 15.926 22.8044 16.0416 22.6285L17.1671 20.9158L18.618 22.682C18.7855 22.886 19.0631 22.9627 19.3116 22.8737C19.5601 22.7847 19.7259 22.5492 19.7259 22.2853V8.15486C19.7259 7.99066 19.6613 7.83305 19.546 7.71611L15.1685 3.27512C15.051 3.15596 14.8907 3.08887 14.7234 3.08887H6.76419C6.07912 3.08887 5.59277 3.39298 5.2994 3.80633C5.02898 4.18737 4.94531 4.62497 4.94531 4.92505V22.2853Z" fill="white" stroke="#444B54" stroke-width="1.25" stroke-linecap="square" stroke-linejoin="round"/>
<path d="M14.7266 3.71387V6.13623C14.7266 6.67453 15.0449 7.75113 16.3184 7.75113C17.5919 7.75113 18.9715 7.75113 19.5021 7.75113" stroke="#444B54" stroke-width="1.25"/>
<rect x="11.1406" y="12.1924" width="5.57143" height="0.807453" rx="0.403727" fill="#9EB9D3"/>
<rect x="11.1406" y="14.6143" width="5.57143" height="0.807453" rx="0.403727" fill="#9EB9D3"/>
<rect x="7.96094" y="14.6143" width="2.38775" height="0.807453" rx="0.403727" fill="#9EB9D3"/>
<rect x="14.3281" y="17.0371" width="2.38776" height="0.807453" rx="0.403727" fill="#FF5576"/>
<rect x="7.96094" y="12.1924" width="2.38775" height="0.807453" rx="0.403727" fill="#9EB9D3"/>
<rect x="7.96094" y="9.76953" width="2.38775" height="0.807454" rx="0.403727" fill="#9EB9D3"/>
</svg>
