<svg width="59" height="59" viewBox="0 0 59 59" fill="none" xmlns="http://www.w3.org/2000/svg">
<path fill-rule="evenodd" clip-rule="evenodd" d="M45.8426 0H7.1629L0 11.4606V42.9774C0 47.7246 3.84833 51.5729 8.59548 51.5729H42.9774C47.7246 51.5729 51.5729 47.7246 51.5729 42.9774V11.4606L45.8426 0Z" fill="white"/>
<rect x="44.4102" y="14.3262" width="3.43819" height="11.4606" fill="white"/>
<rect x="45.8438" y="14.3262" width="3.43819" height="42.9774" transform="rotate(90 45.8438 14.3262)" fill="white"/>
<path fill-rule="evenodd" clip-rule="evenodd" d="M9.22731 3.72471L3.72471 12.5289V42.9774C3.72471 45.6675 5.90543 47.8482 8.59548 47.8482H42.9774C45.6675 47.8482 47.8482 45.6675 47.8482 42.9774V12.3399L43.5406 3.72471H9.22731ZM45.8426 0H7.1629L0 11.4606V42.9774C0 47.7246 3.84833 51.5729 8.59548 51.5729H42.9774C47.7246 51.5729 51.5729 47.7246 51.5729 42.9774V11.4606L45.8426 0Z" fill="#212121"/>
<path d="M40.9603 57.2251C49.9432 57.2251 57.2253 49.943 57.2253 40.9601C57.2253 31.9772 49.9432 24.6951 40.9603 24.6951C31.9774 24.6951 24.6953 31.9772 24.6953 40.9601C24.6953 49.943 31.9774 57.2251 40.9603 57.2251Z" fill="white"/>
<path d="M40.9612 59.0001C31.0248 59.0001 22.9219 50.8972 22.9219 40.9607C22.9219 31.0243 31.0248 22.9214 40.9612 22.9214C50.8977 22.9214 59.0006 31.0243 59.0006 40.9607C59.0006 50.8972 50.8977 59.0001 40.9612 59.0001ZM40.9612 26.4701C32.9766 26.4701 26.4706 32.9761 26.4706 40.9607C26.4706 48.9454 32.9766 55.4514 40.9612 55.4514C48.9459 55.4514 55.4519 48.9454 55.4519 40.9607C55.4519 32.9761 48.9459 26.4701 40.9612 26.4701Z" fill="#212121"/>
<rect x="24.3555" y="2.86499" width="3.43819" height="8.59548" fill="#212121"/>
<rect x="2.86719" y="14.3262" width="3.43819" height="45.8426" transform="rotate(-90 2.86719 14.3262)" fill="#212121"/>
<path fill-rule="evenodd" clip-rule="evenodd" d="M47.8839 36.6597C47.4985 36.2904 46.8909 36.2888 46.5036 36.6563L38.8987 43.8725C38.5155 44.2362 37.9155 44.239 37.5289 43.8789L35.4794 41.9703C35.0864 41.6044 34.4745 41.6141 34.0934 41.9924L33.7166 42.3664C33.3214 42.7587 33.3227 43.3983 33.7196 43.7889L37.3152 47.3274C37.6972 47.7033 38.3075 47.7113 38.6992 47.3456L48.2259 38.4495C48.6455 38.0577 48.6498 37.3938 48.2354 36.9966L47.8839 36.6597Z" fill="#212121"/>
</svg>
