<svg width="84" height="47" viewBox="0 0 84 47" fill="none" xmlns="http://www.w3.org/2000/svg">
<g clip-path="url(#clip0_930_42711)">
<path d="M12.6 25.5047C9.912 25.5047 9.912 21.3839 12.6 21.3839H13.496V19.4905H7.448C4.76 19.4905 4.76 15.3697 7.448 15.3697H13.552V13.4206H2.016C-0.672 13.4206 -0.672 9.29976 2.016 9.29976H13.496V2.06043C13.496 0.946682 14.392 0 15.568 0H59.024C60.144 0 61.096 0.890995 61.096 2.06043V7.07227H71.848C72.576 7.07227 73.192 7.4064 73.528 7.96327C76.888 12.4182 80.248 16.8732 83.608 21.3282C83.888 21.718 84 22.1078 84 22.5533V38.7026C84 39.8163 83.104 40.763 81.928 40.763H78.512C77.56 44.4384 74.256 47 70.448 47C66.64 47 63.336 44.4384 62.384 40.763H36.904C35.952 44.4384 32.648 47 28.84 47C25.032 47 21.728 44.4384 20.776 40.763H15.624C14.504 40.763 13.552 39.872 13.552 38.7026V25.5047H12.6Z" fill="#212121"/>
<path d="M70.4471 30.4607C74.2551 30.4607 77.5591 33.0223 78.5111 36.6976H79.8551V23.2213L79.4071 22.6088H66.0231C64.9031 22.6088 63.9511 21.7178 63.9511 20.5483V13.9216C63.9511 12.8078 64.8471 11.8611 66.0231 11.8611H71.2871L70.7831 11.1372H61.0391V36.6419H62.3831C63.3351 33.0223 66.6391 30.4607 70.4471 30.4607Z" fill="white"/>
<path d="M70.4461 34.5261C68.1501 34.5261 66.2461 36.4195 66.2461 38.7027C66.2461 40.9858 68.1501 42.8792 70.4461 42.8792C72.7421 42.8792 74.6461 40.9858 74.6461 38.7027C74.6461 36.4195 72.7981 34.5261 70.4461 34.5261Z" fill="white"/>
<path d="M28.8406 34.5259C26.5446 34.5259 24.6406 36.4192 24.6406 38.7024C24.6406 40.9856 26.5446 42.879 28.8406 42.879C31.1366 42.879 33.0406 40.9856 33.0406 38.7024C33.0406 36.4192 31.1366 34.5259 28.8406 34.5259Z" fill="white"/>
<path d="M76.3258 18.544L74.4217 15.9824H68.0938V18.544H76.3258Z" fill="white"/>
<path d="M36.9046 36.6981H56.9526V4.12109H17.6406V9.35569H18.3686C21.0566 9.35569 21.0566 13.4765 18.3686 13.4765H17.6406V15.4256H23.6886C26.3766 15.4256 26.3766 19.5464 23.6886 19.5464H17.6406V21.4955H21.8406C24.5286 21.4955 24.5286 25.6164 21.8406 25.6164H17.6406V36.7538H20.7766C21.7286 33.0784 25.0326 30.5168 28.8406 30.5168C32.6486 30.4611 35.9526 33.0228 36.9046 36.6981Z" fill="white"/>
</g>
<defs>
<clipPath id="clip0_930_42711">
<rect width="84" height="47" fill="white"/>
</clipPath>
</defs>
</svg>
