<svg width="70" height="48" viewBox="0 0 70 48" fill="none" xmlns="http://www.w3.org/2000/svg">
<rect x="32.5" y="12.5" width="24" height="24" rx="12" fill="#444B54" stroke="white"/>
<rect x="33.6641" y="13.6665" width="21.6667" height="21.6667" rx="10.8333" fill="white"/>
<path d="M45.6914 17.327C45.3619 16.9435 44.7846 16.9043 44.3964 17.2393L35.8128 24.6436C35.3486 25.0441 35.2911 25.7469 35.685 26.2055L40.1043 31.3503C40.4338 31.7339 41.0111 31.773 41.3993 31.4381L49.9829 24.0337C50.4471 23.6333 50.5046 22.9305 50.1107 22.4718L45.6914 17.327Z" fill="#EB001B"/>
<rect width="7.13034" height="0.879374" rx="0.439687" transform="matrix(0.755309 -0.65516 0.649414 0.760457 40.5312 24.4969)" fill="white"/>
<path d="M50.1981 24.2839L41.614 31.688C41.0907 32.1393 40.2949 32.0854 39.8508 31.5684L35.4312 26.4239C34.9155 25.8236 34.9896 24.9177 35.5973 24.3935L44.1814 16.9895C44.7047 16.5381 45.5005 16.5921 45.9446 17.109L50.3642 22.2536C50.8799 22.8539 50.8058 23.7597 50.1981 24.2839ZM36.0271 24.8938C35.6979 25.1777 35.6583 25.6619 35.9376 25.9871L40.3572 31.1316C40.5649 31.3734 40.9394 31.3988 41.1842 31.1877L49.7683 23.7836C50.0975 23.4997 50.1371 23.0155 49.8577 22.6904L45.4382 17.5458C45.2304 17.304 44.856 17.2786 44.6112 17.4898L36.0271 24.8938Z" fill="#444B54"/>
<path d="M41.2197 28.1314L40.377 28.8602C40.2337 28.9841 40.0313 28.9703 39.9097 28.8285C39.7882 28.6867 39.8049 28.4835 39.9481 28.3596L40.7909 27.6309C40.9341 27.507 41.1366 27.5207 41.2581 27.6625C41.3796 27.8044 41.363 28.0075 41.2197 28.1314Z" fill="#444B54"/>
<path d="M43.4033 26.2315L42.5606 26.9603C42.4173 27.0842 42.2149 27.0704 42.0933 26.9286C41.9718 26.7868 41.9885 26.5836 42.1317 26.4597L42.9745 25.731C43.1177 25.6071 43.3202 25.6208 43.4417 25.7626C43.5632 25.9045 43.5466 26.1076 43.4033 26.2315Z" fill="#444B54"/>
<path d="M45.5908 24.3316L44.7481 25.0604C44.6048 25.1842 44.4024 25.1705 44.2808 25.0287C44.1593 24.8869 44.176 24.6837 44.3192 24.5598L45.162 23.8311C45.3052 23.7072 45.5077 23.7209 45.6292 23.8627C45.7507 24.0046 45.7341 24.2077 45.5908 24.3316Z" fill="#444B54"/>
<path d="M47.7744 22.4317L46.9317 23.1605C46.7884 23.2843 46.5859 23.2706 46.4644 23.1288C46.3429 22.987 46.3596 22.7838 46.5028 22.6599L47.3456 21.9312C47.4888 21.8073 47.6913 21.821 47.8128 21.9628C47.9343 22.1047 47.9177 22.3078 47.7744 22.4317Z" fill="#444B54"/>
<path d="M40.4449 26.6185L39.2623 27.6372C39.1187 27.7609 38.9157 27.7472 38.7938 27.6056L37.9338 26.6058C37.8119 26.4641 37.8286 26.2612 37.9722 26.1375L39.1548 25.1188C39.2984 24.9951 39.5014 25.0088 39.6233 25.1504L40.4833 26.1502C40.6052 26.2919 40.5885 26.4948 40.4449 26.6185Z" fill="#F8DB59"/>
<rect width="7.12997" height="0.659546" rx="0.329773" transform="matrix(0.755148 -0.655353 0.649283 0.760572 40.3164 29.3461)" fill="#444B54"/>
<path d="M48.6037 18.6045C48.3426 18.1699 47.7609 18.0472 47.2988 18.3293L37.0827 24.5657C36.5302 24.903 36.3335 25.6041 36.6457 26.1238L40.1479 31.9532C40.409 32.3878 40.9907 32.5105 41.4528 32.2284L51.6689 25.992C52.2214 25.6547 52.418 24.9536 52.1058 24.434L48.6037 18.6045Z" fill="#FF5F00"/>
<rect width="7.512" height="0.885868" rx="0.442934" transform="matrix(0.849679 -0.527003 0.506583 0.862547 41.9258 25.1038)" fill="white"/>
<path d="M51.8409 26.2751L41.6231 32.5107C41.0002 32.8909 40.1982 32.7218 39.8463 32.1361L36.3435 26.3077C35.9347 25.6276 36.1882 24.7241 36.9116 24.2826L47.1295 18.047C47.7524 17.6669 48.5543 17.8359 48.9063 18.4216L52.409 24.25C52.8178 24.9301 52.5643 25.8337 51.8409 26.2751ZM37.2522 24.8494C36.8604 25.0885 36.7249 25.5714 36.9463 25.9399L40.4491 31.7683C40.6137 32.0422 40.9911 32.1218 41.2825 31.9439L51.5003 25.7083C51.8922 25.4692 52.0276 24.9863 51.8062 24.6179L48.3035 18.7895C48.1388 18.5155 47.7614 18.436 47.4701 18.6138L37.2522 24.8494Z" fill="#444B54"/>
<path d="M41.953 28.8719L40.9519 29.4871C40.7818 29.5917 40.5781 29.5484 40.4821 29.3871C40.386 29.2259 40.4426 29.0226 40.6128 28.918L41.6139 28.3027C41.7841 28.1981 41.9877 28.2414 42.0838 28.4027C42.1799 28.564 42.1232 28.7673 41.953 28.8719Z" fill="#444B54"/>
<path d="M44.539 27.2561L43.5379 27.8714C43.3677 27.976 43.1641 27.9327 43.068 27.7714C42.9719 27.6101 43.0286 27.4068 43.1988 27.3022L44.1998 26.687C44.37 26.5824 44.5736 26.6257 44.6697 26.787C44.7658 26.9482 44.7091 27.1516 44.539 27.2561Z" fill="#444B54"/>
<path d="M47.1249 25.6407L46.1238 26.2559C45.9536 26.3605 45.75 26.3172 45.6539 26.1559C45.5578 25.9947 45.6145 25.7914 45.7847 25.6868L46.7858 25.0715C46.956 24.9669 47.1596 25.0102 47.2557 25.1715C47.3517 25.3328 47.2951 25.5361 47.1249 25.6407Z" fill="#444B54"/>
<path d="M49.7069 24.0247L48.7058 24.64C48.5357 24.7446 48.332 24.7012 48.236 24.54C48.1399 24.3787 48.1965 24.1754 48.3667 24.0708L49.3678 23.4555C49.538 23.3509 49.7416 23.3943 49.8377 23.5555C49.9338 23.7168 49.8771 23.9201 49.7069 24.0247Z" fill="#444B54"/>
<path d="M41.4468 27.2507L40.0368 28.108C39.8656 28.2122 39.6607 28.1693 39.564 28.0091L38.8816 26.8783C38.7849 26.7181 38.8419 26.516 39.0131 26.4119L40.4231 25.5545C40.5943 25.4504 40.7991 25.4933 40.8958 25.6535L41.5783 26.7843C41.675 26.9445 41.618 27.1466 41.4468 27.2507Z" fill="#F8DB59"/>
<rect width="7.50914" height="0.66452" rx="0.33226" transform="matrix(0.849181 -0.527854 0.508055 0.86163 40.8086 29.9578)" fill="#444B54"/>
<path d="M50.7205 20.065C50.5155 19.5995 49.9527 19.4047 49.458 19.6279L38.5208 24.5639C37.9293 24.8308 37.6459 25.5046 37.8911 26.0611L40.6413 32.3048C40.8464 32.7703 41.4092 32.9651 41.9039 32.7419L52.8411 27.8059C53.4326 27.539 53.716 26.8652 53.4708 26.3087L50.7205 20.065Z" fill="#F79E1B"/>
<rect width="7.5148" height="0.897921" rx="0.44896" transform="matrix(0.908318 -0.417891 0.388476 0.921939 41.793 26.439)" fill="white"/>
<path d="M52.9855 28.1079L42.046 33.0433C41.379 33.3442 40.6031 33.0757 40.3266 32.4485L37.5757 26.2065C37.2547 25.4781 37.62 24.6099 38.3945 24.2605L49.334 19.3251C50.0009 19.0243 50.7769 19.2927 51.0533 19.92L53.8042 26.1619C54.1252 26.8903 53.7599 27.7585 52.9855 28.1079ZM38.662 24.8675C38.2425 25.0567 38.0472 25.5208 38.2211 25.9153L40.972 32.1573C41.1013 32.4507 41.4665 32.577 41.7784 32.4363L52.718 27.501C53.1375 27.3117 53.3327 26.8476 53.1588 26.4531L50.4079 20.2111C50.2786 19.9177 49.9134 19.7914 49.6015 19.9321L38.662 24.8675Z" fill="#444B54"/>
<path d="M42.8422 29.4611L41.7728 29.9475C41.591 30.0302 41.3938 29.9608 41.3178 29.7873C41.2417 29.6139 41.3226 29.418 41.5044 29.3353L42.5738 28.8488C42.7556 28.7661 42.9528 28.8355 43.0289 29.009C43.1049 29.1825 43.024 29.3784 42.8422 29.4611Z" fill="#444B54"/>
<path d="M49.5868 26.3159L43.4134 29.1724C42.3639 29.6581 41.5041 29.8938 41.4291 29.7165C41.3542 29.5392 42.0994 29.0322 43.1489 28.5466L49.3223 25.6901C50.3718 25.2045 51.2316 24.9687 51.3066 25.1461C51.3815 25.3234 50.6363 25.8303 49.5868 26.3159Z" fill="#444B54"/>
<path d="M45.6035 28.1711L44.5325 28.6581C44.3505 28.7409 44.1536 28.6717 44.0783 28.4985C44.0029 28.3252 44.0845 28.1294 44.2666 28.0467L45.3376 27.5597C45.5196 27.4769 45.7165 27.5461 45.7918 27.7193C45.8672 27.8925 45.7856 28.0883 45.6035 28.1711Z" fill="#444B54"/>
<path d="M51.1309 25.5942L50.0599 26.0812C49.8778 26.1639 49.681 26.0948 49.6056 25.9216C49.5303 25.7483 49.6119 25.5525 49.7939 25.4698L50.8649 24.9828C51.047 24.9 51.2438 24.9692 51.3192 25.1424C51.3945 25.3156 51.3129 25.5114 51.1309 25.5942Z" fill="#444B54"/>
<rect width="7.51035" height="0.671505" rx="0.335753" transform="matrix(0.907549 -0.419686 0.394363 0.919281 41.5703 30.3879)" fill="#444B54"/>
<rect x="16.5" y="12.5" width="24" height="24" rx="12" fill="#08BFB0" stroke="white"/>
<path d="M28.5026 36.1668C34.9459 36.1668 40.1693 30.9435 40.1693 24.5002C40.1693 18.0568 34.9459 12.8335 28.5026 12.8335C22.0593 12.8335 16.8359 18.0568 16.8359 24.5002C16.8359 30.9435 22.0593 36.1668 28.5026 36.1668Z" fill="#07A296"/>
<path fill-rule="evenodd" clip-rule="evenodd" d="M28.5026 36.1667C22.0592 36.1667 16.8359 30.5704 16.8359 23.6667H40.1693C40.1693 30.5704 34.9461 36.1667 28.5026 36.1667Z" fill="#05867B"/>
<path d="M28.4974 35.3332C34.4805 35.3332 39.3307 30.4829 39.3307 24.4998C39.3307 18.5168 34.4805 13.6665 28.4974 13.6665C22.5143 13.6665 17.6641 18.5168 17.6641 24.4998C17.6641 30.4829 22.5143 35.3332 28.4974 35.3332Z" fill="#08BFB0"/>
<path d="M34.75 30.75C38.2018 27.2982 38.2018 21.7018 34.75 18.25C31.2982 14.7982 25.7018 14.7982 22.25 18.25C18.7982 21.7018 18.7982 27.2982 22.25 30.75C25.7018 34.2018 31.2982 34.2018 34.75 30.75Z" fill="#15ACA0"/>
<path fill-rule="evenodd" clip-rule="evenodd" d="M28.5026 33.6667C23.4398 33.6667 19.3359 29.1898 19.3359 23.6667H37.6693C37.6693 29.1898 33.5654 33.6667 28.5026 33.6667Z" fill="#08DCCA"/>
<path d="M28.4974 32.8332C33.0998 32.8332 36.8307 29.1022 36.8307 24.4998C36.8307 19.8975 33.0998 16.1665 28.4974 16.1665C23.895 16.1665 20.1641 19.8975 20.1641 24.4998C20.1641 29.1022 23.895 32.8332 28.4974 32.8332Z" fill="#12C4B6"/>
<path fill-rule="evenodd" clip-rule="evenodd" d="M28.8056 18.6665H28.1465V19.2929C28.1465 19.8761 28.0859 20.1785 28.0329 20.4737C27.9799 20.7473 27.9268 21.0353 27.9268 21.4744C27.9268 21.9568 28.0405 22.4176 28.1465 22.8568C28.2526 23.2744 28.3435 23.6776 28.3435 24.0736C28.3435 24.4696 28.245 24.8656 28.1465 25.2904C28.0405 25.7368 27.9268 26.1903 27.9268 26.6727C27.9268 27.1119 27.9799 27.3999 28.0329 27.6735C28.0632 27.8319 28.0935 27.9903 28.1162 28.1919C27.6162 28.1919 27.2223 28.0551 26.9344 27.8967C26.1541 27.4719 25.6617 26.6727 25.6617 25.8088V22.3384C25.6617 21.4024 26.2375 20.5457 27.1314 20.1497L27.1693 20.1353L27.1768 20.0993C27.2147 19.8545 27.2299 19.6097 27.2299 19.3001V18.7817L27.1314 18.8105C25.4875 19.2641 24.3359 20.7113 24.3359 22.3384V25.8088C24.3359 26.6655 24.6617 27.5007 25.2375 28.1559C25.8511 28.8543 26.7602 29.3367 27.7147 29.4519C28.2981 29.5167 28.9268 29.5239 29.5102 29.4231C29.6011 29.4087 29.4496 28.1055 29.4496 28.1055C29.4496 28.1055 29.3814 27.6303 29.3511 27.4431C29.3056 27.1911 29.2678 26.9967 29.2678 26.6655C29.2678 26.3271 29.3587 25.9599 29.4496 25.564C29.5632 25.096 29.6844 24.6064 29.6844 24.0664C29.6844 23.5264 29.5632 23.0368 29.4496 22.5688C29.3511 22.18 29.2678 21.8056 29.2678 21.4672C29.2678 21.1433 29.3056 20.9417 29.3511 20.6897C29.389 20.4953 29.4268 20.2865 29.4571 19.9913C30.5481 20.2721 31.3435 21.244 31.3435 22.3384V25.8088C31.3435 26.5791 30.942 27.2919 30.3208 27.7383C30.3662 27.9327 30.4496 28.3935 30.495 29.1063C31.7829 28.5087 32.6693 27.2559 32.6693 25.8088V22.3384C32.6693 20.3081 30.942 18.6665 28.8056 18.6665Z" fill="#08DCCA"/>
<path fill-rule="evenodd" clip-rule="evenodd" d="M30.0854 24.7633C30.0854 24.2086 29.9477 23.7057 29.8187 23.225C29.7068 22.8256 29.6122 22.441 29.6122 22.0934C29.6122 21.7606 29.6552 21.5535 29.7068 21.2947C29.7499 21.095 29.7929 20.8805 29.8273 20.5773C30.2661 20.6735 30.6619 20.8583 30.9974 21.1098C30.6188 20.74 30.1198 20.459 29.552 20.3333C29.5176 20.6365 29.4745 20.851 29.4315 21.0506C29.3799 21.3095 29.3369 21.5092 29.3369 21.8494C29.3369 22.197 29.4401 22.5742 29.5434 22.9809C29.6724 23.469 29.8101 23.9646 29.8101 24.5192C29.8101 25.0739 29.6724 25.5768 29.5434 26.0576C29.4315 26.4643 29.3369 26.8415 29.3369 27.1891C29.3369 27.5219 29.3799 27.729 29.4315 27.9878C29.4745 28.1727 29.5434 28.6683 29.5434 28.6683C29.5434 28.6683 29.7154 30.0069 29.6122 30.0217C28.9497 30.1252 28.2356 30.1178 27.5731 30.0513C26.6869 29.9551 25.8352 29.6075 25.1641 29.0824C25.8438 29.7258 26.7816 30.1622 27.7796 30.2731C28.4679 30.3471 29.1992 30.3619 29.8875 30.2657C29.9908 30.2509 29.8187 28.9123 29.8187 28.9123C29.8187 28.9123 29.7413 28.4242 29.7068 28.2319C29.6552 27.9731 29.6122 27.7734 29.6122 27.4332C29.6122 27.0856 29.7154 26.7084 29.8187 26.3016C29.9563 25.8135 30.0854 25.318 30.0854 24.7633Z" fill="#05867B"/>
<path fill-rule="evenodd" clip-rule="evenodd" d="M31.8021 20.3334C32.2344 20.9668 32.4948 21.802 32.4948 22.7277V26.0826C32.4948 27.4816 31.8854 28.6927 31 29.2704L31.1719 29.5C32.0573 28.9223 32.6667 27.7113 32.6667 26.3122V22.9574C32.6667 21.9203 32.3333 20.9807 31.8021 20.3334Z" fill="#05867B"/>
<path fill-rule="evenodd" clip-rule="evenodd" d="M26.7188 19.1896C26.7188 19.5108 26.7118 19.7648 26.6944 20.0188L26.691 20.0562L26.6736 20.0711C26.2639 20.482 26 21.3711 26 22.3423V25.9432C26 26.6753 26.1528 27.3626 26.4028 27.8333C26.2222 27.385 26.1146 26.8023 26.1146 26.1897V22.5963C26.1146 21.6251 26.3785 20.736 26.7882 20.3251L26.8056 20.3102L26.809 20.2728C26.8264 20.0188 26.8333 19.7648 26.8333 19.4436V18.9132L26.7188 18.6666V18.9879V19.1896Z" fill="#05867B"/>
<rect x="0.5" y="12.5" width="24" height="24" rx="12" fill="#212121" stroke="white"/>
<rect x="1.66406" y="13.6665" width="21.6667" height="21.6667" rx="10.8333" fill="white"/>
<path d="M12.2017 23.5985C12.192 24.2949 12.8888 24.6836 13.4141 24.9146C13.9535 25.1519 14.1349 25.3039 14.1328 25.516C14.1287 25.8406 13.7025 25.9836 13.3036 25.9892C12.6075 25.9988 12.2031 25.8194 11.8812 25.6839L11.6306 26.7435C11.9535 26.8778 12.5511 26.995 13.1707 27C14.6254 27 15.5772 26.3514 15.5824 25.3456C15.5879 24.0692 13.6278 23.9986 13.6413 23.4281C13.6457 23.2552 13.8285 23.0705 14.2292 23.0236C14.4275 22.9999 14.9745 22.9816 15.5948 23.2397L15.8382 22.2145C15.5046 22.1051 15.0757 22 14.5418 22C13.1728 22 12.2096 22.6576 12.2017 23.5985ZM18.1779 22.0883C17.9122 22.0883 17.6884 22.2282 17.5886 22.4431L15.5105 26.9248H16.9642L17.2533 26.2028H19.0299L19.1979 26.9248H20.4788L19.3607 22.0883H18.1779ZM18.381 23.3948L18.8007 25.2109H17.6516L18.381 23.3948ZM10.4392 22.0883L9.29325 26.9248H10.6784L11.8241 22.0883H10.4392ZM8.38998 22.0883L6.94798 25.3801L6.36485 22.5811C6.29635 22.2686 6.02613 22.0883 5.72595 22.0883H3.36898L3.33594 22.2288C3.81993 22.3237 4.36967 22.4766 4.70255 22.6402C4.90633 22.7403 4.96451 22.8277 5.03163 23.0652L6.13628 26.9248H7.60031L9.84471 22.0883H8.38998Z" fill="url(#paint0_linear_930_42508)"/>
<defs>
<linearGradient id="paint0_linear_930_42508" x1="6.1042" y1="23.72" x2="12.7911" y2="30.5023" gradientUnits="userSpaceOnUse">
<stop stop-color="#222357"/>
<stop offset="1" stop-color="#254AA5"/>
</linearGradient>
</defs>
</svg>
