<svg width="53" height="53" viewBox="0 0 53 53" fill="none" xmlns="http://www.w3.org/2000/svg">
<path d="M48.2424 21.7912V21.7909C48.2372 17.0894 46.3672 12.5821 43.0427 9.25761C39.7183 5.93317 35.2109 4.06319 30.5094 4.05791H30.5091C30.0107 4.05791 29.5327 3.85992 29.1803 3.50751C28.8279 3.1551 28.6299 2.67713 28.6299 2.17874C28.6299 1.68035 28.8279 1.20238 29.1803 0.849969C29.5327 0.497595 30.0106 0.299617 30.5089 0.299574C36.207 0.305874 41.6699 2.57221 45.699 6.60134C49.7282 10.6305 51.9945 16.0935 52.0008 21.7916C52.0007 22.2898 51.8027 22.7677 51.4504 23.12C51.098 23.4724 50.62 23.6704 50.1216 23.6704C49.6232 23.6704 49.1452 23.4724 48.7928 23.12C48.4404 22.7676 48.2424 22.2896 48.2424 21.7912ZM44.8306 32.611L45.0136 32.3733L44.8307 32.611L44.8309 32.6112L44.8316 32.6117L44.8344 32.6139L44.8457 32.6226L44.8895 32.6563L45.056 32.7845L45.6509 33.2426C46.1434 33.622 46.8009 34.1285 47.4604 34.6372C48.12 35.1459 48.7815 35.6565 49.2823 36.0442C49.5328 36.2381 49.7428 36.401 49.8922 36.5175C49.967 36.5758 50.0262 36.6222 50.0675 36.6548C50.0883 36.6712 50.1039 36.6837 50.1145 36.6923C50.1168 36.6941 50.1187 36.6956 50.1202 36.6969C51.3217 37.9062 51.9963 39.5418 51.9963 41.2468C51.9963 42.9558 51.3186 44.5951 50.1118 45.8052L50.1045 45.8126L50.0976 45.8204L48.1238 48.0959C43.769 52.2571 37.8406 52.7576 31.5884 50.8305C25.3289 48.9012 18.7931 44.5483 13.3241 39.0936C7.85525 33.639 3.47789 27.1071 1.51149 20.8442C-0.452678 14.5883 -0.000958875 8.65009 4.09456 4.2823L6.58913 2.11311L6.59519 2.10784L6.60096 2.10225C7.81209 0.92953 9.43623 0.280784 11.122 0.296368C12.8041 0.311918 14.4126 0.987631 15.601 2.17765C15.6023 2.17921 15.6039 2.18119 15.6059 2.18365C15.6145 2.19427 15.627 2.20991 15.6434 2.23068C15.6761 2.27205 15.7224 2.33125 15.7808 2.40605C15.8973 2.55552 16.0603 2.76563 16.2543 3.01618C16.6422 3.5172 17.1531 4.17901 17.6621 4.83886C18.171 5.49867 18.6778 6.15639 19.0574 6.64916L19.5157 7.24423L19.644 7.4108L19.6778 7.45467L19.6864 7.46591L19.6886 7.46876L19.6892 7.46947L19.6893 7.46965L19.9271 7.28671L19.6894 7.46971L19.6989 7.48216L19.7098 7.49355C20.8547 8.69639 21.4921 10.2942 21.4894 11.9549C21.4867 13.6155 20.8441 15.2113 19.6952 16.4103L19.6856 16.4203L19.677 16.4312L17.1536 19.604L17.0438 19.742L17.1109 19.9049C18.5225 23.3347 20.5978 26.4517 23.2178 29.0769C25.8377 31.7022 28.9505 33.7838 32.3774 35.2023L32.5406 35.2698L32.6789 35.1599L35.8713 32.6212L35.8821 32.6126L35.8921 32.6031C37.0913 31.4551 38.6868 30.8132 40.3469 30.8109C42.0071 30.8086 43.6043 31.4459 44.8068 32.5906L44.8182 32.6014L44.8306 32.611ZM47.5523 39.4486L47.5326 39.4258L47.5087 39.4074L47.3257 39.6452L47.5086 39.4073L47.5084 39.4072L47.5077 39.4066L47.5049 39.4045L47.4937 39.3959L47.4501 39.3623L47.2845 39.2349L46.6929 38.7795C46.203 38.4024 45.5491 37.8988 44.8931 37.3932C44.237 36.8875 43.579 36.3798 43.0809 35.9944C42.8318 35.8016 42.6228 35.6396 42.4742 35.5238C42.3998 35.4658 42.341 35.4197 42.2998 35.3873C42.2792 35.3709 42.2636 35.3586 42.2531 35.35C42.2504 35.3479 42.2483 35.3462 42.2467 35.3449C41.7424 34.8489 41.0633 34.5709 40.3557 34.5709C39.647 34.5709 38.9669 34.8498 38.4624 35.3471C38.461 35.3482 38.4594 35.3496 38.4573 35.3514L38.4181 35.3837C38.3835 35.412 38.3339 35.4523 38.2711 35.503C38.1458 35.6042 37.9696 35.7457 37.7595 35.9141C37.3394 36.2508 36.7846 36.6941 36.2316 37.1356C35.6785 37.5771 35.1273 38.0167 34.7144 38.346L34.2157 38.7435L34.0761 38.8547L34.0394 38.884L34.0299 38.8915L34.0275 38.8934L34.0269 38.8939L34.0269 38.894C34.0268 38.894 34.0268 38.894 34.0268 38.894C33.7714 39.0973 33.4674 39.2305 33.1449 39.2806C32.8223 39.3307 32.4922 39.2959 32.1872 39.1796L32.185 39.1788C27.8331 37.5585 23.8802 35.0218 20.5941 31.7406C17.3081 28.4594 14.7656 24.5103 13.1389 20.1607L13.139 20.1607L13.1358 20.153C13.0103 19.8438 12.9694 19.5067 13.0173 19.1764C13.0651 18.8462 13.2001 18.5346 13.4083 18.2738L13.4085 18.2735L13.1738 18.0867L13.4086 18.2735L13.4087 18.2733L13.4092 18.2727L13.4111 18.2704L13.4186 18.2609L13.4479 18.2242L13.5591 18.0845L13.9566 17.5856C14.2858 17.1725 14.7253 16.6211 15.1667 16.0679C15.608 15.5147 16.0512 14.9599 16.3876 14.5399C16.5558 14.3298 16.6971 14.1537 16.7982 14.0285C16.8488 13.9658 16.8889 13.9162 16.9172 13.8817L16.9493 13.8427C16.951 13.8407 16.9523 13.8391 16.9534 13.8378C17.4506 13.3333 17.7295 12.6533 17.7295 11.9447C17.7295 11.2367 17.4511 10.5573 16.9548 10.0529C16.9535 10.0514 16.9519 10.0494 16.9499 10.0469C16.9415 10.0366 16.9292 10.0212 16.9129 10.0006C16.8805 9.95966 16.8344 9.90092 16.7765 9.82659C16.6607 9.6781 16.4987 9.46924 16.306 9.22007C15.9206 8.72184 15.4129 8.06351 14.9072 7.40708C14.4016 6.75068 13.898 6.09631 13.5209 5.60602L13.0655 5.01395L12.9381 4.84821L12.9046 4.80457L12.896 4.79338L12.8938 4.79055L12.8932 4.78984L12.8931 4.78966L12.6552 4.97243L12.8931 4.7896L12.8761 4.7676L12.8555 4.74907C12.3428 4.28936 11.6737 4.04316 10.9853 4.06094C10.3004 4.07863 9.64796 4.35633 9.16046 4.83742L6.66176 7.0102L6.64347 7.02612L6.62796 7.04476C3.45486 10.8601 3.53326 15.9853 5.55365 21.2539C7.57555 26.5264 11.5624 32.0087 16.3293 36.6315C21.0963 41.2544 26.6666 45.0406 31.8761 46.901C37.0766 48.7582 42.0007 48.7201 45.3613 45.5443L45.3721 45.5341L45.3819 45.5228L47.3567 43.2467C47.8716 42.7638 48.1807 42.1008 48.2192 41.3955C48.2581 40.6845 48.0189 39.9864 47.5523 39.4486ZM42.2556 35.3536L42.2547 35.3527L42.2556 35.3536ZM36.8848 15.4155C35.1939 13.7245 32.9005 12.7746 30.5091 12.7746C30.0107 12.7746 29.5327 12.5766 29.1803 12.2242C28.8279 11.8718 28.6299 11.3938 28.6299 10.8954C28.6299 10.397 28.8279 9.91905 29.1803 9.56664C29.5327 9.21429 30.0105 9.01632 30.5088 9.01624C33.896 9.01962 37.1435 10.3667 39.5386 12.7618C41.9337 15.1569 43.2807 18.4044 43.2841 21.7915C43.284 22.2898 43.0861 22.7677 42.7337 23.12C42.3813 23.4724 41.9033 23.6704 41.4049 23.6704C40.9066 23.6704 40.4286 23.4724 40.0762 23.12C39.7238 22.7676 39.5258 22.2896 39.5258 21.7912C39.5258 19.3999 38.5758 17.1064 36.8848 15.4155Z" fill="#212121" stroke="#CEF2EF" stroke-width="0.6"/>
</svg>
