<svg width="75" height="77" viewBox="0 0 75 77" fill="none" xmlns="http://www.w3.org/2000/svg">
<circle cx="34.5" cy="42.5" r="34.5" fill="white"/>
<path d="M1.87414 47.2566C2.69702 47.1668 3.29548 46.4188 3.20571 45.5959C2.80175 42.0051 3.02617 38.3695 3.84905 34.8087C7.24531 20.2811 20.172 10.0923 34.939 10.1073L29.6576 14.88C29.0442 15.4335 28.9993 16.3911 29.5529 17.0045C29.8521 17.3336 30.2561 17.4982 30.675 17.4982C31.034 17.4982 31.3931 17.3636 31.6774 17.1092L39.8763 9.68834C40.2054 9.38911 40.385 8.97019 40.37 8.5363C40.355 8.10242 40.1606 7.6835 39.8314 7.41419L31.3333 0.352377C30.6899 -0.186236 29.7474 -0.0964668 29.2087 0.546877C28.6701 1.19022 28.7599 2.13279 29.4032 2.67141L34.7146 7.1C18.6609 7.17481 4.61209 18.3061 0.916606 34.1204C0.00395648 38.0104 -0.220466 41.9752 0.213417 45.925C0.303186 46.6881 0.946529 47.2566 1.70956 47.2566C1.76941 47.2566 1.82926 47.2566 1.87414 47.2566Z" fill="black"/>
<path d="M53.4599 68.0981C45.9941 73.3944 36.6133 75.2347 27.7112 73.17C19.1981 71.1801 11.867 65.779 7.43841 58.2833L14.4105 60.5276C15.2034 60.7819 16.0562 60.348 16.3106 59.5551C16.5649 58.7621 16.131 57.9093 15.3381 57.655L4.82016 54.2587C4.40123 54.1241 3.95239 54.1839 3.57835 54.4083C3.20432 54.6327 2.94997 55.0068 2.87516 55.4407L1.00498 66.3326C0.870327 67.1555 1.40894 67.9335 2.23182 68.0681C2.32159 68.0831 2.3964 68.0831 2.48617 68.0831C3.20432 68.0831 3.84766 67.5595 3.96735 66.8263L5.10442 60.2134C9.98186 68.2028 17.8666 73.948 27.0379 76.0875C29.6562 76.7009 32.3193 77.0001 34.9526 77.0001C42.149 77.0001 49.2408 74.7858 55.2104 70.5518C55.8837 70.073 56.0482 69.1304 55.5695 68.4571C55.0757 67.7689 54.1332 67.6193 53.4599 68.0981Z" fill="black"/>
<path d="M73.9121 57.8192C73.6279 57.0412 72.7601 56.6372 71.9821 56.9215L65.3243 59.3752C66.9999 56.4427 68.2268 53.2858 69.0048 49.9644C72.8349 33.5517 64.4116 16.7499 48.9863 10.0173C48.2233 9.68811 47.3406 10.0322 47.0114 10.7953C46.6823 11.5583 47.0264 12.441 47.7894 12.7702C61.8831 18.9193 69.5733 34.2848 66.0873 49.2762C65.3841 52.2834 64.262 55.156 62.7658 57.8042L61.2996 51.0267C61.1201 50.2187 60.3271 49.6951 59.5042 49.8746C58.6963 50.0542 58.1727 50.8471 58.3522 51.67L60.6712 62.4722C60.761 62.9061 61.0303 63.2652 61.4193 63.4746C61.6437 63.5943 61.8981 63.6541 62.1375 63.6541C62.317 63.6541 62.4965 63.6242 62.6611 63.5644L73.0294 59.7342C73.8074 59.4649 74.2114 58.5972 73.9121 57.8192Z" fill="black"/>
<path fill-rule="evenodd" clip-rule="evenodd" d="M48.2222 27H22.7222L18 34.5556V55.3333C18 58.4629 20.5371 61 23.6667 61H46.3333C49.4629 61 52 58.4629 52 55.3333V34.5556L48.2222 27Z" fill="white"/>
<rect x="47.2773" y="36.4448" width="2.26667" height="7.55555" fill="white"/>
<rect x="48.2227" y="36.4448" width="2.26667" height="28.3333" transform="rotate(90 48.2227 36.4448)" fill="white"/>
<path fill-rule="evenodd" clip-rule="evenodd" d="M24.0832 29.4556L20.4556 35.2598V55.3333C20.4556 57.1068 21.8932 58.5444 23.6667 58.5444H46.3333C48.1068 58.5444 49.5444 57.1068 49.5444 55.3333V35.1352L46.7046 29.4556H24.0832ZM48.2222 27H22.7222L18 34.5556V55.3333C18 58.4629 20.5371 61 23.6667 61H46.3333C49.4629 61 52 58.4629 52 55.3333V34.5556L48.2222 27Z" fill="#212121"/>
<rect x="34.0547" y="28.8892" width="2.26667" height="5.66667" fill="#212121"/>
<rect x="19.8906" y="36.4448" width="2.26667" height="30.2222" transform="rotate(-90 19.8906 36.4448)" fill="#212121"/>
</svg>
