<svg width="26" height="26" viewBox="0 0 26 26" fill="none" xmlns="http://www.w3.org/2000/svg">
<path d="M17.2985 8.65718C17.2985 10.5287 16.5467 12.2637 15.2812 13.4978C18.5319 15.1919 20.6605 18.6542 20.6605 22.5454V22.9996H24.9953C24.9953 19.8297 22.8855 17.1706 20.0372 16.4337C20.0372 16.4337 20.0014 16.424 19.973 16.4142C19.8729 16.3811 19.8011 16.2797 19.8011 16.1627C19.8011 16.0497 19.8672 15.9541 19.9636 15.9132C21.3783 15.2991 22.3737 13.8545 22.3737 12.1702C22.3737 9.9263 20.6133 8.10742 18.4393 8.10742C18.0389 8.10742 17.6536 8.16981 17.289 8.28483C17.2947 8.40959 17.2985 8.53241 17.2985 8.65718Z" fill="#86CDD7"/>
<path d="M19.6905 22.994H2V22.5456C2 18.4322 4.6462 14.849 8.46346 13.7515C6.57088 12.8099 5.36583 10.8428 5.36583 8.65744C5.36394 5.53824 7.82316 3 10.8452 3C13.8673 3 16.3265 5.53824 16.3265 8.65744C16.3265 10.8428 15.1196 12.8099 13.227 13.7515C17.0405 14.8451 19.6886 18.4303 19.6886 22.5456V22.994H19.6905ZM2.88018 22.0973H18.8103C18.6233 18.5043 16.2019 15.4417 12.7926 14.5586C12.785 14.5566 12.7265 14.541 12.6811 14.5254C12.3752 14.4279 12.1598 14.1199 12.1598 13.7768C12.1598 13.4551 12.3449 13.1686 12.6301 13.0438C14.3471 12.2991 15.4577 10.5777 15.4577 8.65549C15.4596 6.03147 13.3894 3.89677 10.8452 3.89677C8.30102 3.89677 6.23279 6.03342 6.23279 8.65744C6.23279 10.5796 7.34151 12.301 9.05843 13.0458C9.34552 13.1686 9.53063 13.4571 9.53063 13.7768C9.53063 14.1199 9.31342 14.4279 9.00365 14.5274C8.96399 14.541 8.90355 14.5566 8.90355 14.5566C5.4886 15.4417 3.06528 18.5063 2.88018 22.0973Z" fill="#444B54" stroke="#444B54" stroke-width="0.4"/>
</svg>
