<svg width="18" height="18" viewBox="0 0 18 18" fill="none" xmlns="http://www.w3.org/2000/svg">
<path d="M7.29758 5.91153e-09C8.6579 -5.47358e-05 9.99116 0.380079 11.1469 1.0975C12.3026 1.81493 13.2349 2.84108 13.8384 4.06017C14.4418 5.27925 14.6926 6.64274 14.5623 7.99676C14.432 9.35078 13.9258 10.6414 13.1009 11.7231L17.7162 16.3401C17.8907 16.5152 17.992 16.7502 17.9995 16.9973C18.0071 17.2444 17.9203 17.4851 17.7568 17.6705C17.5933 17.8559 17.3653 17.9722 17.1192 17.9956C16.8731 18.0191 16.6273 17.9479 16.4317 17.7967L16.3403 17.716L11.7231 13.1009C10.8016 13.8035 9.72602 14.2766 8.58537 14.481C7.44473 14.6854 6.27181 14.6153 5.16366 14.2764C4.05551 13.9375 3.04399 13.3396 2.2128 12.5322C1.38161 11.7248 0.754657 10.731 0.383808 9.63318C0.012958 8.53535 -0.0911219 7.36499 0.0801802 6.21894C0.251482 5.07289 0.693241 3.98411 1.3689 3.04269C2.04457 2.10127 2.9347 1.33427 3.96567 0.805169C4.99663 0.276064 6.13877 6.11599e-05 7.29758 5.91153e-09ZM7.29758 1.94606C5.87819 1.94606 4.51692 2.5099 3.51326 3.51353C2.50959 4.51716 1.94574 5.87838 1.94574 7.29773C1.94574 8.71708 2.50959 10.0783 3.51326 11.0819C4.51692 12.0856 5.87819 12.6494 7.29758 12.6494C8.71698 12.6494 10.0782 12.0856 11.0819 11.0819C12.0856 10.0783 12.6494 8.71708 12.6494 7.29773C12.6494 5.87838 12.0856 4.51716 11.0819 3.51353C10.0782 2.5099 8.71698 1.94606 7.29758 1.94606Z" fill="#4D4D4D"/>
</svg>
