<svg width="27" height="27" viewBox="0 0 27 27" fill="none" xmlns="http://www.w3.org/2000/svg">
<path d="M22.4966 7.77708H22.7571L22.6264 7.55179C21.1632 5.03065 18.7654 3.18769 15.9528 2.42232L15.5015 2.29952L15.7972 2.66189C17.042 4.18755 18.0692 5.87854 18.8494 7.68651L18.8884 7.77708H18.9871H22.4966ZM17.4595 16.4938H17.5693L17.6025 16.389C17.9419 15.3171 18.1191 14.2005 18.1281 13.0762L18.1281 13.0738C18.1191 11.9495 17.9419 10.8329 17.6025 9.76097L17.5693 9.65625H17.4595H8.69052H8.58068L8.54752 9.76097C8.20812 10.8329 8.03095 11.9495 8.02187 13.0738L8.02189 13.0762C8.03095 14.2005 8.20812 15.3171 8.54752 16.389L8.58068 16.4938H8.69052H17.4595ZM9.56437 18.3729H9.32034L9.43053 18.5907C10.3613 20.4297 11.5519 22.1251 12.9659 23.6248L13.075 23.7406L13.1842 23.6248C14.5976 22.1247 15.7882 20.4294 16.7195 18.5907L16.8298 18.3729H16.5856H9.56437ZM9.43056 7.55931L9.32025 7.77708H9.56437H16.5856H16.8297L16.7195 7.55935C15.7888 5.72032 14.5981 4.02486 13.1841 2.52518L13.075 2.40938L12.9658 2.52521C11.5524 4.0253 10.3618 5.72065 9.43056 7.55931ZM10.3582 2.66199L10.6543 2.29972L10.2028 2.4223C7.38805 3.18637 4.98811 5.02948 3.52366 7.55177L3.39284 7.77708H3.65338H7.16293H7.26149L7.30061 7.68661C8.08242 5.87833 9.11144 4.18732 10.3582 2.66199ZM2.68147 9.65625H2.57143L2.53839 9.76122C1.85944 11.9182 1.85944 14.2318 2.53839 16.3888L2.57143 16.4938H2.68147H6.42855H6.62343L6.57355 16.3054C6.2944 15.251 6.14964 14.1656 6.14272 13.075C6.14964 11.9844 6.2944 10.899 6.57355 9.84464L6.62343 9.65625H6.42855H2.68147ZM3.65338 18.3729H3.39284L3.52366 18.5982C4.98811 21.1205 7.38805 22.9636 10.2028 23.7277L10.6543 23.8503L10.3582 23.488C9.11144 21.9627 8.08242 20.2717 7.30061 18.4634L7.26149 18.3729H7.16293H3.65338ZM15.7972 23.4881L15.5015 23.8505L15.9528 23.7277C18.7654 22.9623 21.1632 21.1194 22.6264 18.5982L22.7571 18.3729H22.4966H18.9871H18.8884L18.8494 18.4635C18.0692 20.2715 17.042 21.9625 15.7972 23.4881ZM19.5765 16.3054L19.5266 16.4938H19.7215H23.2619H23.4664H23.4685V16.3444L23.6094 16.3888C24.2884 14.2318 24.2884 11.9182 23.6094 9.76122L23.5764 9.65625H23.4664H19.7215H19.5266L19.5765 9.84464C19.8556 10.899 20.0004 11.9844 20.0073 13.075C20.0004 14.1656 19.8556 15.251 19.5765 16.3054ZM5.89426 2.32826C8.01974 0.908053 10.5186 0.150016 13.0749 0.15C16.5017 0.153728 19.7871 1.51667 22.2102 3.93979C24.6334 6.36292 25.9963 9.64834 26 13.0752C26 15.6314 25.2419 18.1303 23.8218 20.2557C22.4015 22.3813 20.3829 24.0379 18.0212 25.0161C15.6595 25.9944 13.0607 26.2504 10.5535 25.7517C8.04626 25.2529 5.74325 24.022 3.93565 22.2144C2.12806 20.4068 0.89707 18.1038 0.398356 15.5965C-0.100358 13.0893 0.1556 10.4906 1.13386 8.12882C2.11213 5.76708 3.76876 3.74847 5.89426 2.32826Z" fill="#212121" stroke="#CEF2EF" stroke-width="0.3"/>
</svg>
