<svg width="57" height="51" viewBox="0 0 57 51" fill="none" xmlns="http://www.w3.org/2000/svg">
<path d="M45.326 19.0469H18.9717" stroke="#212121" stroke-width="1.87381" stroke-linecap="round" stroke-linejoin="round"/>
<path d="M16.8077 27.9277C14.3898 31.9126 10.6785 35.9946 9.60255 38.0964C7.78918 41.6317 11.839 49.1761 14.8976 49.1761H49.4725C52.5189 49.1761 56.5809 41.6317 54.7675 38.0964C53.7037 36.0067 50.0165 31.9733 47.6108 28.0128" stroke="#212121" stroke-width="1.87381" stroke-linecap="round" stroke-linejoin="round"/>
<path d="M46.39 9.7287L49.5937 2.56086C49.8354 2.02631 48.9288 1.50391 48.143 1.50391H16.2277C15.454 1.50391 14.5473 2.02631 14.777 2.56086L18.1982 10.0446" stroke="#212121" stroke-width="1.87381" stroke-linecap="round" stroke-linejoin="round"/>
<path d="M45.0722 10.2757L19.4554 10.2393C12.0689 10.2393 19.9268 12.9242 19.2378 18.379C19.0081 20.1892 18.3553 21.8171 15.3451 26.3851C14.7043 26.6403 15.466 27.4056 16.0946 27.4056H48.3726C49.0012 27.4056 49.6056 27.2234 49.1221 26.3851C46.1119 21.8171 45.4591 20.2013 45.2294 18.379C44.5524 13.0578 52.2773 10.2757 45.0843 10.2757H45.0722Z" stroke="#212121" stroke-width="1.87381" stroke-linecap="round" stroke-linejoin="round"/>
<path d="M15.4901 15.9736C17.098 15.9736 18.4036 17.2857 18.4036 18.9015C18.4036 20.5173 17.098 21.8294 15.4901 21.8294C13.8823 21.8294 12.5767 20.5173 12.5767 18.9015C12.5767 17.2857 13.8823 15.9736 15.4901 15.9736Z" stroke="#212121" stroke-width="1.87381" stroke-linecap="round" stroke-linejoin="round"/>
<path d="M13.2778 20.8086C10.2434 24.2103 5.92762 29.0455 1.51509 30.467C1.40628 30.5034 1.44255 30.5277 1.30957 30.637" stroke="#212121" stroke-width="1.87381" stroke-linecap="round" stroke-linejoin="round"/>
<path d="M12.3953 20.5771C11.8271 22.0107 5.03298 24.4162 3.55811 24.562" stroke="#212121" stroke-width="1.87381" stroke-linecap="round" stroke-linejoin="round"/>
<path d="M32.1851 35.6543V36.5047" stroke="#212121" stroke-width="1.87381" stroke-linecap="round" stroke-linejoin="round"/>
<path d="M32.1851 31.0254V31.8758" stroke="#212121" stroke-width="1.87381" stroke-linecap="round" stroke-linejoin="round"/>
<path d="M55.1545 40.6963H9.51807" stroke="#212121" stroke-width="1.87381" stroke-linecap="round" stroke-linejoin="round"/>
</svg>
