<svg width="68" height="69" viewBox="0 0 68 69" fill="none" xmlns="http://www.w3.org/2000/svg">
<path d="M39.279 32.9847L40.3658 25.9141L40.8405 21.8667H41.4151C42.2646 21.8667 42.9517 21.1796 42.9517 20.3302V14.8586C42.9517 14.0092 42.2646 13.3221 41.4151 13.3221H39.9786L38.0923 10.9361C37.3053 9.93674 36.0935 9.34961 34.8193 9.34961H17.5677C16.3435 9.34961 15.1818 9.88677 14.3948 10.8112L12.2336 13.3221H10.7221C9.87261 13.3221 9.18555 14.0092 9.18555 14.8586V20.3427C9.18555 21.1921 9.87261 21.8792 10.7221 21.8792H11.0843L15.2192 56.6946C15.3691 57.9688 16.4559 58.9307 17.7301 58.9307L56.618 59.0182C58.0171 59.0182 59.1539 57.8814 59.1539 56.4823V35.5455C59.1539 34.1464 58.0171 33.0096 56.6305 33.0096L39.279 32.9847ZM40.4158 34.2339H45.4126V46.726C45.4126 47.413 44.8505 47.9752 44.1634 47.9752H41.665C40.9779 47.9752 40.4158 47.413 40.4158 46.726V34.2339ZM18.2673 10.8986H34.0698C35.344 10.8986 36.5432 11.4733 37.3302 12.4726L38.0173 13.3221H14.2698L15.1068 12.3477C15.8938 11.4233 17.0556 10.8986 18.2673 10.8986ZM10.7346 19.3058V15.8955C10.7346 15.3333 11.1843 14.8836 11.7464 14.8836H40.4033C40.9654 14.8836 41.4151 15.3333 41.4151 15.8955V19.3183C41.4151 19.8804 40.9654 20.3302 40.4033 20.3302H11.7464C11.1843 20.3177 10.7346 19.868 10.7346 19.3058ZM12.6459 21.8667H39.279L38.8917 25.1521L37.68 31.1108C37.3427 30.6112 36.5432 30.1115 35.7063 29.6742C34.3321 28.9747 32.8456 28.5375 31.334 28.3126C29.5726 28.0503 27.7363 27.9129 25.8625 27.9129C21.3279 27.9129 16.9556 28.6999 13.6327 30.1365L12.6459 21.8667ZM27.0367 57.3817H19.1168C17.8301 57.3817 16.7433 56.4198 16.5934 55.1456L15.2692 44.0526C18.3423 45.0895 22.0399 45.6516 25.85 45.6516C26.2497 45.6516 26.637 45.6516 27.0367 45.6391V57.3817ZM27.0367 44.0776C22.6645 44.2275 18.3922 43.5904 15.0693 42.3287L13.8201 31.7729C16.9806 30.2989 21.3279 29.4619 25.85 29.4619C27.0367 29.4619 28.211 29.5243 29.3478 29.6368C31.8962 29.8866 34.3571 30.7611 36.4058 32.2851C36.7306 32.5224 37.0304 32.7723 37.2803 33.0221H29.5602C28.161 33.0221 27.0243 34.1589 27.0243 35.558L27.0367 44.0776ZM55.069 57.4692H31.2966C29.9099 57.4692 28.7731 56.3449 28.7607 54.9582L28.6108 37.132C28.5983 35.7204 29.735 34.5711 31.1466 34.5711L39.1666 34.5836V47.9752C39.1666 48.6622 39.7287 49.2244 40.4158 49.2244H45.4126C46.0997 49.2244 46.6618 48.6622 46.6618 47.9752V34.5836L55.069 34.5711C56.4681 34.5711 57.6049 35.7079 57.6049 37.107V54.9333C57.6049 56.3324 56.4681 57.4692 55.069 57.4692Z" fill="#212121" stroke="#212121" stroke-width="0.312302"/>
</svg>
