<svg width="54" height="54" viewBox="0 0 54 54" fill="none" xmlns="http://www.w3.org/2000/svg">
<mask id="path-1-outside-1_1045_6521" maskUnits="userSpaceOnUse" x="-0.404785" y="0.0732422" width="54" height="54" fill="black">
<rect fill="white" x="-0.404785" y="0.0732422" width="54" height="54"/>
<path d="M44.9657 49.2505C40.1449 51.2321 33.725 52.3302 26.8669 52.3302C20.0088 52.3302 13.5889 51.2321 8.7681 49.2505C4.37369 47.4361 1.8626 45.0726 1.8626 42.7569C1.8626 41.0141 3.29582 39.2474 5.87798 37.6956L5.21467 41.587C5.02516 42.7449 5.41603 43.9267 6.2807 44.6787C8.88655 46.9467 15.5552 49.7758 26.8669 49.7758C38.1786 49.7758 44.8473 46.9467 47.4531 44.6787C48.3296 43.9147 48.7205 42.733 48.5191 41.587L47.8558 37.6956C50.438 39.2355 51.8712 41.0021 51.8712 42.7569C51.8712 45.0726 49.3483 47.4361 44.9657 49.2505ZM11.8833 9.7633C14.6668 11.8164 20.3286 13.2369 26.8669 13.2369C33.4052 13.2369 39.067 11.8284 41.8505 9.7633L47.2873 41.79C47.4057 42.5181 47.157 43.2463 46.6358 43.7118C45.8422 44.4042 43.9352 45.7291 40.0857 46.8512C36.319 47.9494 31.8772 48.4985 26.8787 48.4985C21.8803 48.4985 17.4266 47.9494 13.6718 46.8512C9.82229 45.7291 7.91528 44.4042 7.12168 43.7118C6.60051 43.2582 6.33993 42.5181 6.47022 41.79L11.8833 9.7633ZM21.9276 3.54418C22.0461 3.43675 22.2001 3.32931 22.4014 3.20995C22.4133 3.20995 22.4251 3.19801 22.4488 3.18607C22.4962 3.1622 22.5436 3.13832 22.5909 3.11445C22.6383 3.09058 22.6975 3.0667 22.7568 3.04283C22.7805 3.04283 22.8041 3.03089 22.816 3.01896C22.8752 2.99508 22.9463 2.97121 23.0174 2.94733C23.041 2.94733 23.0647 2.92346 23.1003 2.92346C23.1476 2.91152 23.2069 2.88765 23.2542 2.86378C23.3135 2.85184 23.3609 2.82797 23.4082 2.81603C23.4201 2.81603 23.4319 2.81603 23.4438 2.80409C24.036 2.62504 24.7467 2.4818 25.5521 2.41017H25.5758C25.6943 2.39824 25.8246 2.3863 25.943 2.3863C25.9904 2.3863 26.0496 2.3863 26.097 2.3863C26.1917 2.3863 26.2747 2.3863 26.3694 2.37436C26.5234 2.37436 26.6892 2.37436 26.8551 2.37436C27.0209 2.37436 27.1749 2.37436 27.3407 2.37436C27.4354 2.37436 27.5302 2.37436 27.6131 2.3863C27.6723 2.3863 27.7197 2.3863 27.7671 2.3863C27.8974 2.3863 28.0158 2.39824 28.1343 2.41017H28.158C28.9634 2.4818 29.6741 2.62504 30.2663 2.80409C30.2782 2.80409 30.29 2.80409 30.3137 2.81603C30.373 2.82797 30.4203 2.85184 30.4677 2.86378C30.5151 2.87571 30.5743 2.89959 30.6217 2.92346C30.6454 2.92346 30.6691 2.94733 30.6928 2.94733C30.7638 2.97121 30.8231 2.99508 30.8941 3.01896C30.9178 3.01896 30.9297 3.03089 30.9533 3.04283C31.0126 3.0667 31.0718 3.09058 31.1192 3.11445C31.1666 3.13832 31.2139 3.1622 31.2613 3.18607C31.2732 3.18607 31.2968 3.19801 31.3087 3.20995C31.51 3.31738 31.6759 3.42481 31.7825 3.54418L31.8535 3.6158C31.5337 4.03359 29.8044 4.88111 26.8432 4.88111C23.882 4.88111 22.1527 4.02165 21.8329 3.6158L21.8803 3.54418H21.9276ZM12.2149 7.87727C12.2386 7.73403 12.3334 7.36398 12.7479 7.2088L20.6958 4.12909C21.288 5.28696 23.8228 6.15836 26.8787 6.15836C29.9347 6.15836 32.4695 5.28696 33.0617 4.12909L41.0095 7.2088C41.4241 7.36398 41.5189 7.73403 41.5426 7.87727C41.5663 8.03245 41.5663 8.40249 41.2109 8.68898C38.6051 10.6824 32.9788 11.9716 26.8906 11.9716C20.8024 11.9716 15.1761 10.6824 12.5703 8.68898C12.2031 8.41443 12.2149 8.03245 12.2386 7.87727H12.2149ZM47.5952 36.0961L42.7981 7.79371H42.7863C42.7152 7.04169 42.2533 6.33741 41.4596 6.02705L32.6827 2.62504C32.6116 2.56535 32.5405 2.49373 32.4576 2.43405C32.4339 2.41017 32.3984 2.3863 32.3629 2.36243C32.3036 2.31468 32.2444 2.27887 32.1734 2.23112C32.1378 2.20725 32.1023 2.18337 32.0668 2.1595C31.9838 2.11175 31.8891 2.064 31.7943 2.01626C31.7706 2.00432 31.7469 1.99238 31.7233 1.98045C31.6167 1.92076 31.4982 1.87301 31.3798 1.82527C31.3324 1.81333 31.2968 1.78946 31.2495 1.77752C31.1665 1.74171 31.0718 1.7059 30.977 1.67009C30.9297 1.65815 30.8823 1.63428 30.8349 1.62234C30.7046 1.57459 30.5743 1.53878 30.444 1.50297C30.4322 1.50297 30.4203 1.50297 30.3966 1.49103C30.2545 1.45522 30.0887 1.41941 29.9347 1.37166C29.8873 1.35973 29.8281 1.34779 29.7807 1.33585C29.6623 1.31198 29.5438 1.28811 29.4254 1.26423C29.3661 1.26423 29.3188 1.2523 29.2714 1.24036C29.1056 1.21648 28.9397 1.19261 28.7739 1.16874C28.7739 1.16874 28.7621 1.16874 28.7502 1.16874C28.5725 1.14486 28.3949 1.13293 28.2054 1.10905C28.1461 1.10905 28.0988 1.10905 28.0395 1.09712C27.8974 1.09712 27.7671 1.08518 27.625 1.07324C27.5657 1.07324 27.5184 1.07324 27.4591 1.07324C27.2815 1.07324 27.0801 1.07324 26.8906 1.07324C26.7011 1.07324 26.4997 1.07324 26.3102 1.08518C26.251 1.08518 26.1917 1.08518 26.1444 1.08518C26.0022 1.08518 25.8601 1.09712 25.7298 1.10905C25.6706 1.10905 25.6232 1.10905 25.564 1.12099C25.3863 1.13293 25.1968 1.1568 25.0191 1.18067C25.0191 1.18067 25.0073 1.18067 24.9954 1.18067C24.8296 1.20455 24.6638 1.22842 24.4979 1.2523C24.4387 1.2523 24.3913 1.26423 24.344 1.27617C24.2255 1.30004 24.1071 1.32392 23.9886 1.34779C23.9412 1.35973 23.882 1.37166 23.8346 1.3836C23.6807 1.41941 23.5267 1.45522 23.3727 1.50297C23.3608 1.50297 23.3372 1.50297 23.3253 1.51491C23.195 1.55072 23.0647 1.58653 22.9344 1.63428C22.8871 1.64621 22.8397 1.67009 22.7923 1.68202C22.6975 1.71783 22.6028 1.75364 22.5199 1.78946C22.4725 1.80139 22.4251 1.82527 22.3896 1.8372C22.2711 1.88495 22.1527 1.9327 22.0461 1.99238C22.0224 2.00432 21.9987 2.01626 21.975 2.02819C21.8803 2.07594 21.7973 2.12369 21.7144 2.17144C21.6789 2.19531 21.6434 2.21918 21.6078 2.24306C21.5368 2.2908 21.4775 2.32662 21.4183 2.36243C21.3828 2.3863 21.3591 2.41017 21.3236 2.43405C21.2406 2.49373 21.1696 2.55342 21.0985 2.62504L12.3215 6.03899C11.5161 6.34935 11.066 7.05362 10.9949 7.80565H10.9831L6.13856 36.0961C2.66805 37.9344 0.595215 40.2382 0.595215 42.7569C0.595215 48.7492 12.3571 53.5956 26.8669 53.5956C41.3767 53.5956 53.1386 48.7372 53.1386 42.7569C53.1386 40.2501 51.0658 37.9344 47.5952 36.0961Z"/>
</mask>
<path d="M44.9657 49.2505C40.1449 51.2321 33.725 52.3302 26.8669 52.3302C20.0088 52.3302 13.5889 51.2321 8.7681 49.2505C4.37369 47.4361 1.8626 45.0726 1.8626 42.7569C1.8626 41.0141 3.29582 39.2474 5.87798 37.6956L5.21467 41.587C5.02516 42.7449 5.41603 43.9267 6.2807 44.6787C8.88655 46.9467 15.5552 49.7758 26.8669 49.7758C38.1786 49.7758 44.8473 46.9467 47.4531 44.6787C48.3296 43.9147 48.7205 42.733 48.5191 41.587L47.8558 37.6956C50.438 39.2355 51.8712 41.0021 51.8712 42.7569C51.8712 45.0726 49.3483 47.4361 44.9657 49.2505ZM11.8833 9.7633C14.6668 11.8164 20.3286 13.2369 26.8669 13.2369C33.4052 13.2369 39.067 11.8284 41.8505 9.7633L47.2873 41.79C47.4057 42.5181 47.157 43.2463 46.6358 43.7118C45.8422 44.4042 43.9352 45.7291 40.0857 46.8512C36.319 47.9494 31.8772 48.4985 26.8787 48.4985C21.8803 48.4985 17.4266 47.9494 13.6718 46.8512C9.82229 45.7291 7.91528 44.4042 7.12168 43.7118C6.60051 43.2582 6.33993 42.5181 6.47022 41.79L11.8833 9.7633ZM21.9276 3.54418C22.0461 3.43675 22.2001 3.32931 22.4014 3.20995C22.4133 3.20995 22.4251 3.19801 22.4488 3.18607C22.4962 3.1622 22.5436 3.13832 22.5909 3.11445C22.6383 3.09058 22.6975 3.0667 22.7568 3.04283C22.7805 3.04283 22.8041 3.03089 22.816 3.01896C22.8752 2.99508 22.9463 2.97121 23.0174 2.94733C23.041 2.94733 23.0647 2.92346 23.1003 2.92346C23.1476 2.91152 23.2069 2.88765 23.2542 2.86378C23.3135 2.85184 23.3609 2.82797 23.4082 2.81603C23.4201 2.81603 23.4319 2.81603 23.4438 2.80409C24.036 2.62504 24.7467 2.4818 25.5521 2.41017H25.5758C25.6943 2.39824 25.8246 2.3863 25.943 2.3863C25.9904 2.3863 26.0496 2.3863 26.097 2.3863C26.1917 2.3863 26.2747 2.3863 26.3694 2.37436C26.5234 2.37436 26.6892 2.37436 26.8551 2.37436C27.0209 2.37436 27.1749 2.37436 27.3407 2.37436C27.4354 2.37436 27.5302 2.37436 27.6131 2.3863C27.6723 2.3863 27.7197 2.3863 27.7671 2.3863C27.8974 2.3863 28.0158 2.39824 28.1343 2.41017H28.158C28.9634 2.4818 29.6741 2.62504 30.2663 2.80409C30.2782 2.80409 30.29 2.80409 30.3137 2.81603C30.373 2.82797 30.4203 2.85184 30.4677 2.86378C30.5151 2.87571 30.5743 2.89959 30.6217 2.92346C30.6454 2.92346 30.6691 2.94733 30.6928 2.94733C30.7638 2.97121 30.8231 2.99508 30.8941 3.01896C30.9178 3.01896 30.9297 3.03089 30.9533 3.04283C31.0126 3.0667 31.0718 3.09058 31.1192 3.11445C31.1666 3.13832 31.2139 3.1622 31.2613 3.18607C31.2732 3.18607 31.2968 3.19801 31.3087 3.20995C31.51 3.31738 31.6759 3.42481 31.7825 3.54418L31.8535 3.6158C31.5337 4.03359 29.8044 4.88111 26.8432 4.88111C23.882 4.88111 22.1527 4.02165 21.8329 3.6158L21.8803 3.54418H21.9276ZM12.2149 7.87727C12.2386 7.73403 12.3334 7.36398 12.7479 7.2088L20.6958 4.12909C21.288 5.28696 23.8228 6.15836 26.8787 6.15836C29.9347 6.15836 32.4695 5.28696 33.0617 4.12909L41.0095 7.2088C41.4241 7.36398 41.5189 7.73403 41.5426 7.87727C41.5663 8.03245 41.5663 8.40249 41.2109 8.68898C38.6051 10.6824 32.9788 11.9716 26.8906 11.9716C20.8024 11.9716 15.1761 10.6824 12.5703 8.68898C12.2031 8.41443 12.2149 8.03245 12.2386 7.87727H12.2149ZM47.5952 36.0961L42.7981 7.79371H42.7863C42.7152 7.04169 42.2533 6.33741 41.4596 6.02705L32.6827 2.62504C32.6116 2.56535 32.5405 2.49373 32.4576 2.43405C32.4339 2.41017 32.3984 2.3863 32.3629 2.36243C32.3036 2.31468 32.2444 2.27887 32.1734 2.23112C32.1378 2.20725 32.1023 2.18337 32.0668 2.1595C31.9838 2.11175 31.8891 2.064 31.7943 2.01626C31.7706 2.00432 31.7469 1.99238 31.7233 1.98045C31.6167 1.92076 31.4982 1.87301 31.3798 1.82527C31.3324 1.81333 31.2968 1.78946 31.2495 1.77752C31.1665 1.74171 31.0718 1.7059 30.977 1.67009C30.9297 1.65815 30.8823 1.63428 30.8349 1.62234C30.7046 1.57459 30.5743 1.53878 30.444 1.50297C30.4322 1.50297 30.4203 1.50297 30.3966 1.49103C30.2545 1.45522 30.0887 1.41941 29.9347 1.37166C29.8873 1.35973 29.8281 1.34779 29.7807 1.33585C29.6623 1.31198 29.5438 1.28811 29.4254 1.26423C29.3661 1.26423 29.3188 1.2523 29.2714 1.24036C29.1056 1.21648 28.9397 1.19261 28.7739 1.16874C28.7739 1.16874 28.7621 1.16874 28.7502 1.16874C28.5725 1.14486 28.3949 1.13293 28.2054 1.10905C28.1461 1.10905 28.0988 1.10905 28.0395 1.09712C27.8974 1.09712 27.7671 1.08518 27.625 1.07324C27.5657 1.07324 27.5184 1.07324 27.4591 1.07324C27.2815 1.07324 27.0801 1.07324 26.8906 1.07324C26.7011 1.07324 26.4997 1.07324 26.3102 1.08518C26.251 1.08518 26.1917 1.08518 26.1444 1.08518C26.0022 1.08518 25.8601 1.09712 25.7298 1.10905C25.6706 1.10905 25.6232 1.10905 25.564 1.12099C25.3863 1.13293 25.1968 1.1568 25.0191 1.18067C25.0191 1.18067 25.0073 1.18067 24.9954 1.18067C24.8296 1.20455 24.6638 1.22842 24.4979 1.2523C24.4387 1.2523 24.3913 1.26423 24.344 1.27617C24.2255 1.30004 24.1071 1.32392 23.9886 1.34779C23.9412 1.35973 23.882 1.37166 23.8346 1.3836C23.6807 1.41941 23.5267 1.45522 23.3727 1.50297C23.3608 1.50297 23.3372 1.50297 23.3253 1.51491C23.195 1.55072 23.0647 1.58653 22.9344 1.63428C22.8871 1.64621 22.8397 1.67009 22.7923 1.68202C22.6975 1.71783 22.6028 1.75364 22.5199 1.78946C22.4725 1.80139 22.4251 1.82527 22.3896 1.8372C22.2711 1.88495 22.1527 1.9327 22.0461 1.99238C22.0224 2.00432 21.9987 2.01626 21.975 2.02819C21.8803 2.07594 21.7973 2.12369 21.7144 2.17144C21.6789 2.19531 21.6434 2.21918 21.6078 2.24306C21.5368 2.2908 21.4775 2.32662 21.4183 2.36243C21.3828 2.3863 21.3591 2.41017 21.3236 2.43405C21.2406 2.49373 21.1696 2.55342 21.0985 2.62504L12.3215 6.03899C11.5161 6.34935 11.066 7.05362 10.9949 7.80565H10.9831L6.13856 36.0961C2.66805 37.9344 0.595215 40.2382 0.595215 42.7569C0.595215 48.7492 12.3571 53.5956 26.8669 53.5956C41.3767 53.5956 53.1386 48.7372 53.1386 42.7569C53.1386 40.2501 51.0658 37.9344 47.5952 36.0961Z" fill="#212121"/>
<path d="M44.9657 49.2505C40.1449 51.2321 33.725 52.3302 26.8669 52.3302C20.0088 52.3302 13.5889 51.2321 8.7681 49.2505C4.37369 47.4361 1.8626 45.0726 1.8626 42.7569C1.8626 41.0141 3.29582 39.2474 5.87798 37.6956L5.21467 41.587C5.02516 42.7449 5.41603 43.9267 6.2807 44.6787C8.88655 46.9467 15.5552 49.7758 26.8669 49.7758C38.1786 49.7758 44.8473 46.9467 47.4531 44.6787C48.3296 43.9147 48.7205 42.733 48.5191 41.587L47.8558 37.6956C50.438 39.2355 51.8712 41.0021 51.8712 42.7569C51.8712 45.0726 49.3483 47.4361 44.9657 49.2505ZM11.8833 9.7633C14.6668 11.8164 20.3286 13.2369 26.8669 13.2369C33.4052 13.2369 39.067 11.8284 41.8505 9.7633L47.2873 41.79C47.4057 42.5181 47.157 43.2463 46.6358 43.7118C45.8422 44.4042 43.9352 45.7291 40.0857 46.8512C36.319 47.9494 31.8772 48.4985 26.8787 48.4985C21.8803 48.4985 17.4266 47.9494 13.6718 46.8512C9.82229 45.7291 7.91528 44.4042 7.12168 43.7118C6.60051 43.2582 6.33993 42.5181 6.47022 41.79L11.8833 9.7633ZM21.9276 3.54418C22.0461 3.43675 22.2001 3.32931 22.4014 3.20995C22.4133 3.20995 22.4251 3.19801 22.4488 3.18607C22.4962 3.1622 22.5436 3.13832 22.5909 3.11445C22.6383 3.09058 22.6975 3.0667 22.7568 3.04283C22.7805 3.04283 22.8041 3.03089 22.816 3.01896C22.8752 2.99508 22.9463 2.97121 23.0174 2.94733C23.041 2.94733 23.0647 2.92346 23.1003 2.92346C23.1476 2.91152 23.2069 2.88765 23.2542 2.86378C23.3135 2.85184 23.3609 2.82797 23.4082 2.81603C23.4201 2.81603 23.4319 2.81603 23.4438 2.80409C24.036 2.62504 24.7467 2.4818 25.5521 2.41017H25.5758C25.6943 2.39824 25.8246 2.3863 25.943 2.3863C25.9904 2.3863 26.0496 2.3863 26.097 2.3863C26.1917 2.3863 26.2747 2.3863 26.3694 2.37436C26.5234 2.37436 26.6892 2.37436 26.8551 2.37436C27.0209 2.37436 27.1749 2.37436 27.3407 2.37436C27.4354 2.37436 27.5302 2.37436 27.6131 2.3863C27.6723 2.3863 27.7197 2.3863 27.7671 2.3863C27.8974 2.3863 28.0158 2.39824 28.1343 2.41017H28.158C28.9634 2.4818 29.6741 2.62504 30.2663 2.80409C30.2782 2.80409 30.29 2.80409 30.3137 2.81603C30.373 2.82797 30.4203 2.85184 30.4677 2.86378C30.5151 2.87571 30.5743 2.89959 30.6217 2.92346C30.6454 2.92346 30.6691 2.94733 30.6928 2.94733C30.7638 2.97121 30.8231 2.99508 30.8941 3.01896C30.9178 3.01896 30.9297 3.03089 30.9533 3.04283C31.0126 3.0667 31.0718 3.09058 31.1192 3.11445C31.1666 3.13832 31.2139 3.1622 31.2613 3.18607C31.2732 3.18607 31.2968 3.19801 31.3087 3.20995C31.51 3.31738 31.6759 3.42481 31.7825 3.54418L31.8535 3.6158C31.5337 4.03359 29.8044 4.88111 26.8432 4.88111C23.882 4.88111 22.1527 4.02165 21.8329 3.6158L21.8803 3.54418H21.9276ZM12.2149 7.87727C12.2386 7.73403 12.3334 7.36398 12.7479 7.2088L20.6958 4.12909C21.288 5.28696 23.8228 6.15836 26.8787 6.15836C29.9347 6.15836 32.4695 5.28696 33.0617 4.12909L41.0095 7.2088C41.4241 7.36398 41.5189 7.73403 41.5426 7.87727C41.5663 8.03245 41.5663 8.40249 41.2109 8.68898C38.6051 10.6824 32.9788 11.9716 26.8906 11.9716C20.8024 11.9716 15.1761 10.6824 12.5703 8.68898C12.2031 8.41443 12.2149 8.03245 12.2386 7.87727H12.2149ZM47.5952 36.0961L42.7981 7.79371H42.7863C42.7152 7.04169 42.2533 6.33741 41.4596 6.02705L32.6827 2.62504C32.6116 2.56535 32.5405 2.49373 32.4576 2.43405C32.4339 2.41017 32.3984 2.3863 32.3629 2.36243C32.3036 2.31468 32.2444 2.27887 32.1734 2.23112C32.1378 2.20725 32.1023 2.18337 32.0668 2.1595C31.9838 2.11175 31.8891 2.064 31.7943 2.01626C31.7706 2.00432 31.7469 1.99238 31.7233 1.98045C31.6167 1.92076 31.4982 1.87301 31.3798 1.82527C31.3324 1.81333 31.2968 1.78946 31.2495 1.77752C31.1665 1.74171 31.0718 1.7059 30.977 1.67009C30.9297 1.65815 30.8823 1.63428 30.8349 1.62234C30.7046 1.57459 30.5743 1.53878 30.444 1.50297C30.4322 1.50297 30.4203 1.50297 30.3966 1.49103C30.2545 1.45522 30.0887 1.41941 29.9347 1.37166C29.8873 1.35973 29.8281 1.34779 29.7807 1.33585C29.6623 1.31198 29.5438 1.28811 29.4254 1.26423C29.3661 1.26423 29.3188 1.2523 29.2714 1.24036C29.1056 1.21648 28.9397 1.19261 28.7739 1.16874C28.7739 1.16874 28.7621 1.16874 28.7502 1.16874C28.5725 1.14486 28.3949 1.13293 28.2054 1.10905C28.1461 1.10905 28.0988 1.10905 28.0395 1.09712C27.8974 1.09712 27.7671 1.08518 27.625 1.07324C27.5657 1.07324 27.5184 1.07324 27.4591 1.07324C27.2815 1.07324 27.0801 1.07324 26.8906 1.07324C26.7011 1.07324 26.4997 1.07324 26.3102 1.08518C26.251 1.08518 26.1917 1.08518 26.1444 1.08518C26.0022 1.08518 25.8601 1.09712 25.7298 1.10905C25.6706 1.10905 25.6232 1.10905 25.564 1.12099C25.3863 1.13293 25.1968 1.1568 25.0191 1.18067C25.0191 1.18067 25.0073 1.18067 24.9954 1.18067C24.8296 1.20455 24.6638 1.22842 24.4979 1.2523C24.4387 1.2523 24.3913 1.26423 24.344 1.27617C24.2255 1.30004 24.1071 1.32392 23.9886 1.34779C23.9412 1.35973 23.882 1.37166 23.8346 1.3836C23.6807 1.41941 23.5267 1.45522 23.3727 1.50297C23.3608 1.50297 23.3372 1.50297 23.3253 1.51491C23.195 1.55072 23.0647 1.58653 22.9344 1.63428C22.8871 1.64621 22.8397 1.67009 22.7923 1.68202C22.6975 1.71783 22.6028 1.75364 22.5199 1.78946C22.4725 1.80139 22.4251 1.82527 22.3896 1.8372C22.2711 1.88495 22.1527 1.9327 22.0461 1.99238C22.0224 2.00432 21.9987 2.01626 21.975 2.02819C21.8803 2.07594 21.7973 2.12369 21.7144 2.17144C21.6789 2.19531 21.6434 2.21918 21.6078 2.24306C21.5368 2.2908 21.4775 2.32662 21.4183 2.36243C21.3828 2.3863 21.3591 2.41017 21.3236 2.43405C21.2406 2.49373 21.1696 2.55342 21.0985 2.62504L12.3215 6.03899C11.5161 6.34935 11.066 7.05362 10.9949 7.80565H10.9831L6.13856 36.0961C2.66805 37.9344 0.595215 40.2382 0.595215 42.7569C0.595215 48.7492 12.3571 53.5956 26.8669 53.5956C41.3767 53.5956 53.1386 48.7372 53.1386 42.7569C53.1386 40.2501 51.0658 37.9344 47.5952 36.0961Z" stroke="black" stroke-width="0.499684" mask="url(#path-1-outside-1_1045_6521)"/>
</svg>
