<svg width="58" height="52" viewBox="0 0 58 52" fill="none" xmlns="http://www.w3.org/2000/svg">
<path d="M35.2269 21.7544C39.4771 34.2933 35.7779 46.9384 26.9628 50.0067C18.1477 53.075 7.56171 45.3976 3.32469 32.8588C-0.925448 20.3199 2.77374 7.67476 11.5888 4.60645C20.4039 1.53815 30.9899 9.21555 35.2269 21.7544Z" stroke="#212121" stroke-width="1.87526" stroke-linejoin="round"/>
<path d="M11.5888 4.60645C5.14799 35.3957 33.4691 20.3199 26.9758 50.0067" stroke="#212121" stroke-width="1.87526" stroke-linejoin="round"/>
<path d="M37.1289 34.9042C42.1398 35.2628 49.9186 30.3217 53.0144 25.1281C58.1828 16.4811 57.4351 6.45267 51.3616 2.73352C45.9833 -0.560594 34.7414 2.57412 30.2158 11.7392" stroke="#212121" stroke-width="1.87526" stroke-linejoin="round"/>
<path d="M51.3616 2.73352C51.296 16.7601 42.4809 14.9935 36.0532 21.2762" stroke="#212121" stroke-width="1.87526" stroke-linejoin="round"/>
</svg>
