<svg width="40" height="54" viewBox="0 0 40 54" fill="none" xmlns="http://www.w3.org/2000/svg">
<path d="M35.4182 17.399V6.35509C35.4182 3.91719 33.4357 1.93457 30.998 1.93457H5.6081C3.17043 1.93457 1.18799 3.91719 1.18799 6.35509V52.7338H35.4182V46.1104H8.91217V17.399H35.4182Z" stroke="#212121" stroke-width="1.87381" stroke-linecap="round" stroke-linejoin="round"/>
<path d="M25.4763 17.3994V24.0229C25.4763 24.6397 24.9771 25.1243 24.375 25.1243H19.9549C19.3381 25.1243 18.8535 24.625 18.8535 24.0229V17.3994" stroke="#212121" stroke-width="1.87381" stroke-linecap="round" stroke-linejoin="round"/>
<path d="M22.1724 25.124V27.3269" stroke="#212121" stroke-width="1.87381" stroke-linecap="round" stroke-linejoin="round"/>
<path d="M25.4766 21.8193H38.7369" stroke="#212121" stroke-width="1.87381" stroke-linecap="round" stroke-linejoin="round"/>
<path d="M15.5349 8.55762H10.0135C9.4052 8.55762 8.91211 9.05076 8.91211 9.65908V11.8767C8.91211 12.485 9.4052 12.9781 10.0135 12.9781H15.5349C16.1432 12.9781 16.6363 12.485 16.6363 11.8767V9.65908C16.6363 9.05076 16.1432 8.55762 15.5349 8.55762Z" stroke="#212121" stroke-width="1.18675" stroke-linecap="round" stroke-linejoin="round"/>
<path d="M19.9551 12.9785H22.1725" stroke="#212121" stroke-width="1.18675" stroke-linecap="round" stroke-linejoin="round"/>
<path d="M25.772 12.9785H27.9747" stroke="#212121" stroke-width="1.18675" stroke-linecap="round" stroke-linejoin="round"/>
<path d="M14.4336 33.9648V38.3854C14.4336 42.659 17.8992 46.1103 22.1578 46.1103C26.4164 46.1103 29.882 42.6443 29.882 38.3854V33.9648H14.4336V33.9648Z" stroke="#212121" stroke-width="1.87381" stroke-linecap="round" stroke-linejoin="round"/>
<path d="M29.8965 35.0664H33.2152C34.4341 35.0664 35.418 36.0504 35.418 37.2693V38.3708C35.418 39.5897 34.4341 40.5737 33.2152 40.5737H29.8965" stroke="#212121" stroke-width="1.87381" stroke-linecap="round" stroke-linejoin="round"/>
</svg>
